<svg width="140" height="60" viewBox="0 0 140 60" fill="none" xmlns="http://www.w3.org/2000/svg">
<path d="M62.9327 32.7689C62.9327 34.6671 61.6474 35.537 60.389 35.537C58.836 35.537 57.8453 34.4034 57.8453 33.3489C57.8453 32.2945 58.4076 31.6881 59.6392 31.3982L62.2633 30.8182C62.531 30.7654 62.7452 30.6864 62.9058 30.6073V32.7689H62.9327ZM64.9408 32.8481V27.9447C64.9408 25.493 63.0397 23.7267 60.4157 23.7267C57.8721 23.7267 55.8906 25.5194 55.8906 27.813V27.9975C55.8906 28.5246 56.2655 28.841 56.8813 28.841C57.4972 28.841 57.872 28.5246 57.872 27.9975V27.8656C57.872 26.5476 58.9967 25.493 60.4157 25.493C61.8884 25.493 62.9594 26.5212 62.9594 27.971V28.5774C62.9594 28.762 62.6917 28.9465 62.29 29.0256L59.2376 29.711C56.9885 30.2118 55.8906 31.3982 55.8906 33.3226C55.8906 35.537 57.8721 37.3033 60.4157 37.3033C63.0665 37.3033 64.9408 35.4843 64.9408 32.8481ZM75.5172 32.7953C75.5172 34.4826 74.4997 35.5633 72.9199 35.5633C71.3402 35.5633 70.3228 34.4826 70.3228 32.7953V28.2874C70.3228 26.6003 71.3402 25.5194 72.9199 25.5194C74.4997 25.5194 75.5172 26.6003 75.5172 28.2874V32.7953ZM77.4986 32.9271V20.5896C77.4986 20.0625 77.1237 19.7461 76.5079 19.7461C75.8921 19.7461 75.5172 20.0625 75.5172 20.5896V24.8076C74.821 24.175 73.7768 23.7795 72.7058 23.7795C70.5369 23.7795 68.3413 25.2822 68.3413 28.182V32.9271C68.3413 35.9588 70.7244 37.3296 72.9199 37.3296C75.1423 37.3296 77.4986 35.9588 77.4986 32.9271ZM81.4346 36.9869C81.4346 38.595 80.6045 39.8868 79.2122 40.4404C78.8106 40.5986 78.4893 41.0203 78.7303 41.6793C78.8909 42.0748 79.2122 42.3121 79.6138 42.3121C79.7477 42.3121 79.8816 42.2857 80.0156 42.2329C82.1575 41.4948 83.4428 39.5704 83.4428 37.0924V24.5177C83.4428 23.9904 83.0679 23.674 82.4521 23.674C81.8362 23.674 81.4614 23.9904 81.4614 24.5177V36.9869H81.4346ZM83.5231 21.776V20.8006C83.5231 20.1942 83.0946 19.7988 82.4788 19.7988C81.863 19.7988 81.4346 20.1942 81.4346 20.8006V21.776C81.4346 22.3823 81.863 22.7777 82.4788 22.7777C83.0946 22.7777 83.5231 22.3823 83.5231 21.776ZM96.2415 32.9535V24.544C96.2415 24.0168 95.8666 23.7004 95.2508 23.7004C94.635 23.7004 94.2601 24.0168 94.2601 24.544V32.8217C94.2601 34.5089 93.2426 35.5898 91.6629 35.5898C90.0831 35.5898 89.0657 34.5089 89.0657 32.8217V24.544C89.0657 24.0168 88.6908 23.7004 88.075 23.7004C87.4591 23.7004 87.0842 24.0168 87.0842 24.544V32.9535C87.0842 35.9852 89.4673 37.356 91.6629 37.356C93.8585 37.3823 96.2415 35.9852 96.2415 32.9535ZM101.677 27.2857C101.677 26.2312 102.587 25.4667 103.899 25.4667C105.265 25.4667 106.309 26.3367 106.309 27.4702V27.5493C106.309 28.0765 106.684 28.3929 107.3 28.3929C107.916 28.3929 108.291 28.0765 108.291 27.5493V27.3911C108.291 25.3349 106.363 23.7267 103.873 23.7267C101.463 23.7267 99.642 25.2822 99.642 27.3384C99.642 29.3156 100.927 30.6073 103.578 31.2663C105.586 31.7672 106.443 32.479 106.443 33.6653C106.443 34.8252 105.559 35.537 104.114 35.537C102.775 35.537 101.65 34.6406 101.65 33.5862V33.4807C101.65 32.9535 101.275 32.6372 100.66 32.6372C100.044 32.6372 99.6689 32.9535 99.6689 33.4807V33.5862C99.6689 35.6688 101.623 37.3033 104.114 37.3033C106.711 37.3033 108.451 35.827 108.451 33.6389C108.451 31.5035 107.166 30.2118 104.247 29.5001C102.48 29.0519 101.677 28.3401 101.677 27.2857ZM114.958 33.6653V25.8621H118.572C119.054 25.8621 119.349 25.5194 119.349 24.9658C119.349 24.3068 118.947 24.0695 118.572 24.0695H114.958V20.5896C114.958 20.0625 114.583 19.7461 113.967 19.7461C113.351 19.7461 112.976 20.0625 112.976 20.5896V24.0695H111.209C110.727 24.0695 110.433 24.4122 110.433 24.9658C110.433 25.5194 110.727 25.8621 111.209 25.8621H112.976V33.7708C112.976 35.9324 114.583 37.4351 116.912 37.4351C117.769 37.4351 118.625 37.1978 119.268 36.7497C119.723 36.4069 119.804 35.906 119.483 35.4579C119.215 35.0889 118.947 35.0097 118.76 35.0097C118.599 35.0097 118.412 35.0625 118.251 35.1942C117.903 35.4843 117.421 35.6425 116.912 35.6425C115.466 35.6425 114.958 34.6143 114.958 33.6653Z" fill="#111111"/>
<path d="M41.9653 33.427L40.8943 32.6625C38.7522 31.1336 36.7709 29.8155 35.0572 28.8138L34.6824 28.5501L37.1992 22.935L41.9653 33.427ZM43.4648 37.1705L45.1248 35.5361L38.4578 20.8788H35.9675L32.9955 27.6801L32.6741 27.522C30.8802 26.652 29.5146 26.2303 28.4704 26.2303C27.1316 26.2303 26.5157 26.9421 26.2747 27.3902C25.5251 28.6819 25.9535 30.5009 27.56 32.9262C28.1491 33.8225 28.7917 34.6397 29.2202 35.2197H31.6299L32.6206 33.0316L31.6032 30.7381L30.3982 33.348L29.9966 32.8207C29.7288 32.4517 29.4879 32.1089 29.2469 31.7663C27.9349 29.7891 27.7207 28.761 28.0152 28.3919C28.2829 28.0493 29.9431 28.4974 31.737 29.3674C32.7277 29.7891 33.7452 30.3691 34.7359 31.0282C35.4589 31.4763 36.2354 31.9508 37.0118 32.478C39.8768 34.4025 42.5276 36.406 43.4648 37.1705ZM49.516 30C49.516 37.2232 43.5719 43.0756 36.2354 43.0756C28.9256 43.0756 22.9546 37.1969 22.9546 30C22.9546 22.8032 28.8988 16.9244 36.2354 16.9244C43.5451 16.9244 49.516 22.7768 49.516 30ZM51.4707 30C51.4707 21.7223 44.6429 15 36.2354 15C27.8278 15 21 21.7223 21 30C21 38.2777 27.8278 45 36.2354 45C44.6429 45 51.4707 38.2514 51.4707 30Z" fill="#111111"/>
</svg>
