<svg width="60" height="60" viewBox="0 0 60 60" fill="none" xmlns="http://www.w3.org/2000/svg">
<path fill-rule="evenodd" clip-rule="evenodd" d="M36.3569 18.4922C37.7458 16.8917 38.4426 15.1625 38.4426 13.3105V13.3105C38.4426 13.0648 38.4308 12.8172 38.4026 12.5697C37.4351 12.6184 36.4064 12.903 35.3188 13.4177C34.229 13.9402 33.3302 14.5951 32.6235 15.3828C31.2081 16.9385 30.411 18.8412 30.411 20.6192C30.411 20.8649 30.4273 21.0987 30.4553 21.3209C32.6537 21.4944 34.6809 20.3949 36.3569 18.4922ZM43.752 45.0086C44.543 43.9137 45.2256 42.7228 45.8023 41.429C46.0401 40.8804 46.2637 40.309 46.4756 39.7124C45.4987 39.3146 44.6206 38.7546 43.8344 38.03C42.0995 36.4688 41.2168 34.5025 41.1909 32.1397C41.1626 29.1062 42.5821 26.7415 45.4516 25.0532C43.8485 22.8405 41.4381 21.6124 38.2296 21.3609C37.0455 21.2633 35.6002 21.5111 33.8877 22.1095C32.0768 22.7548 31.0085 23.0785 30.6933 23.0785C30.2717 23.0785 29.3101 22.8017 27.8125 22.2558C26.3107 21.7118 25.1022 21.435 24.1806 21.435C22.4963 21.4622 20.9323 21.8874 19.4849 22.7217C18.0374 23.556 16.8809 24.6925 16.0116 26.1333C14.9054 27.9269 14.3532 30.0674 14.3532 32.5491C14.3532 34.7156 14.7628 36.9534 15.5798 39.2644C16.3428 41.4039 17.3166 43.2805 18.5011 44.8989C19.6051 46.4144 20.5267 47.4841 21.2635 48.1082C22.4179 49.1505 23.5744 49.6465 24.7347 49.5985C25.4976 49.5734 26.4955 49.3197 27.7341 48.8328C28.9709 48.3482 30.1272 48.1082 31.2053 48.1082C32.2333 48.1082 33.3576 48.3482 34.5809 48.8328C35.8003 49.3197 36.8478 49.5597 37.7164 49.5597C38.9264 49.5322 40.0563 49.0499 41.1109 48.1082C41.7912 47.5344 42.6739 46.5012 43.752 45.0086Z" fill="black"/>
</svg>
