<svg width="60" height="60" viewBox="0 0 60 60" fill="none" xmlns="http://www.w3.org/2000/svg">
<path fill-rule="evenodd" clip-rule="evenodd" d="M39.3626 14.3389C39.9489 14.6764 40.4156 15.3549 40.6582 16.4855C40.9007 17.616 40.8941 19.1022 40.6107 20.8656C40.5018 21.5431 40.3532 22.2546 40.1656 22.994C38.5196 22.6226 36.7255 22.3417 34.8289 22.1669C33.7287 20.6169 32.5877 19.2085 31.442 17.9732C31.9905 17.4416 32.5343 16.9575 33.0685 16.5248C34.4587 15.3984 35.7465 14.6495 36.8499 14.2937C37.9535 13.9378 38.7762 14.0015 39.3626 14.3389ZM29.0143 17.9732C28.4657 17.4416 27.9219 16.9575 27.3878 16.5248C25.9975 15.3984 24.7097 14.6496 23.6063 14.2937C22.5028 13.9378 21.68 14.0015 21.0937 14.3389C20.5073 14.6764 20.0407 15.3549 19.7981 16.4855C19.5555 17.616 19.5622 19.1022 19.8456 20.8656C19.9544 21.5431 20.1031 22.2546 20.2906 22.994C21.9367 22.6226 23.7308 22.3417 25.6273 22.1669C26.7275 20.6169 27.8686 19.2085 29.0143 17.9732ZM30.2281 16.7306C29.6434 16.1639 29.0608 15.6452 28.4851 15.1788C26.9984 13.9743 25.5212 13.0883 24.1418 12.6435C22.7626 12.1987 21.385 12.1685 20.2237 12.8369C19.0625 13.5052 18.3999 14.7096 18.0967 16.1227C17.7934 17.5359 17.8245 19.2542 18.1276 21.14C18.2449 21.8702 18.4042 22.6324 18.6042 23.4206C17.8195 23.6421 17.0776 23.8857 16.3846 24.1495C14.5948 24.8307 13.0865 25.663 12.0104 26.6314C10.9343 27.5997 10.2193 28.774 10.2193 30.1106C10.2193 31.4473 10.9343 32.6216 12.0104 33.5899C13.0865 34.5583 14.5948 35.3906 16.3846 36.0718C17.0776 36.3356 17.8195 36.5792 18.6042 36.8007C18.4042 37.5888 18.2449 38.3511 18.1276 39.0813C17.8245 40.967 17.7934 42.6854 18.0967 44.0986C18.3999 45.5117 19.0625 46.7161 20.2237 47.3844C21.385 48.0528 22.7626 48.0226 24.1418 47.5778C25.5212 47.133 26.9984 46.247 28.4851 45.0425C29.0608 44.5761 29.6434 44.0574 30.2281 43.4907C30.8128 44.0574 31.3955 44.5761 31.9711 45.0425C33.4578 46.247 34.9351 47.133 36.3144 47.5778C37.6936 48.0226 39.0713 48.0528 40.2325 47.3844C41.3937 46.7161 42.0564 45.5117 42.3596 44.0986C42.6628 42.6854 42.6317 40.967 42.3287 39.0813C42.2113 38.3511 42.052 37.5888 41.852 36.8007C42.6368 36.5792 43.3786 36.3356 44.0716 36.0718C45.8614 35.3906 47.3697 34.5583 48.4459 33.5899C49.5219 32.6216 50.2369 31.4473 50.2369 30.1106C50.2369 28.774 49.5219 27.5997 48.4459 26.6314C47.3697 25.663 45.8614 24.8307 44.0716 24.1495C43.3786 23.8857 42.6368 23.6421 41.852 23.4206C42.052 22.6324 42.2113 21.8702 42.3287 21.14C42.6317 19.2542 42.6628 17.5359 42.3596 16.1227C42.0564 14.7096 41.3937 13.5052 40.2325 12.8369C39.0713 12.1685 37.6936 12.1987 36.3144 12.6435C34.9351 13.0883 33.4578 13.9743 31.9711 15.1788C31.3955 15.6452 30.8128 16.1639 30.2281 16.7306ZM39.6898 24.6651C38.566 24.4148 37.3638 24.2072 36.0991 24.049C36.5118 24.6921 36.9161 25.3546 37.31 26.0347C37.704 26.7149 38.0773 27.3952 38.4296 28.073C38.9246 26.9021 39.3453 25.7604 39.6898 24.6651ZM39.4296 30.1106C40.2261 28.3859 40.8791 26.6966 41.3795 25.0898C42.1156 25.2976 42.808 25.5251 43.451 25.7698C45.1247 26.4068 46.4192 27.1442 47.28 27.9189C48.1409 28.6936 48.497 29.4357 48.497 30.1106C48.497 30.7856 48.1409 31.5277 47.28 32.3024C46.4192 33.0771 45.1247 33.8145 43.451 34.4515C42.808 34.6962 42.1156 34.9237 41.3795 35.1314C40.8791 33.5247 40.2261 31.8354 39.4296 30.1106ZM37.5065 30.1106C36.9951 29.0522 36.4269 27.9787 35.8032 26.9019C35.1796 25.8252 34.5311 24.7978 33.8673 23.8271C32.6921 23.7394 31.4754 23.6932 30.2281 23.6932C28.9808 23.6932 27.7641 23.7394 26.5889 23.8271C25.9251 24.7978 25.2766 25.8252 24.653 26.9019C24.0293 27.9787 23.4611 29.0522 22.9497 30.1106C23.4611 31.1691 24.0293 32.2426 24.653 33.3194C25.2766 34.3961 25.9251 35.4235 26.5889 36.3942C27.7641 36.4819 28.9808 36.5281 30.2281 36.5281C31.4754 36.5281 32.6921 36.4819 33.8673 36.3942C34.5311 35.4235 35.1796 34.3961 35.8032 33.3194C36.4269 32.2426 36.9951 31.1691 37.5065 30.1106ZM36.0991 36.1723C36.5118 35.5292 36.9161 34.8667 37.31 34.1866C37.704 33.5064 38.0773 32.8261 38.4296 32.1483C38.9246 33.3192 39.3453 34.4609 39.6898 35.5562C38.566 35.8065 37.3638 36.0141 36.0991 36.1723ZM32.5586 38.2099C31.7937 38.2447 31.016 38.2625 30.2281 38.2625C29.4403 38.2625 28.6625 38.2447 27.8976 38.2099C28.6673 39.2227 29.4488 40.1568 30.2281 41.0018C31.0074 40.1568 31.7889 39.2227 32.5586 38.2099ZM31.442 42.2481C32.5877 41.0128 33.7287 39.6043 34.8289 38.0544C36.7255 37.8796 38.5196 37.5987 40.1656 37.2273C40.3532 37.9667 40.5018 38.6782 40.6107 39.3557C40.8941 41.1191 40.9007 42.6053 40.6582 43.7358C40.4156 44.8664 39.9489 45.5449 39.3626 45.8823C38.7762 46.2198 37.9535 46.2835 36.8499 45.9276C35.7465 45.5717 34.4587 44.8229 33.0684 43.6965C32.5343 43.2638 31.9905 42.7797 31.442 42.2481ZM29.0143 42.2481C27.8686 41.0128 26.7275 39.6044 25.6273 38.0544C23.7308 37.8796 21.9367 37.5987 20.2906 37.2273C20.1031 37.9667 19.9544 38.6782 19.8456 39.3557C19.5622 41.1191 19.5555 42.6053 19.7981 43.7358C20.0407 44.8664 20.5073 45.5449 21.0937 45.8823C21.68 46.2198 22.5028 46.2835 23.6063 45.9276C24.7097 45.5717 25.9975 44.8229 27.3878 43.6965C27.9219 43.2638 28.4657 42.7797 29.0143 42.2481ZM20.7664 35.5562C21.8902 35.8065 23.0924 36.0141 24.3571 36.1723C23.9445 35.5292 23.5401 34.8667 23.1462 34.1866C22.7523 33.5064 22.3789 32.8261 22.0266 32.1483C21.5317 33.3192 21.1109 34.4609 20.7664 35.5562ZM22.0266 28.073C22.3789 27.3952 22.7523 26.7149 23.1462 26.0347C23.5401 25.3546 23.9445 24.6921 24.3571 24.049C23.0924 24.2072 21.8902 24.4148 20.7664 24.6651C21.1109 25.7604 21.5317 26.902 22.0266 28.073ZM21.0266 30.1106C20.2302 31.8354 19.5771 33.5247 19.0768 35.1314C18.3407 34.9237 17.6483 34.6962 17.0052 34.4515C15.3316 33.8145 14.0371 33.0771 13.1762 32.3024C12.3153 31.5277 11.9592 30.7856 11.9592 30.1106C11.9592 29.4357 12.3153 28.6936 13.1762 27.9189C14.0371 27.1442 15.3316 26.4068 17.0052 25.7698C17.6483 25.5251 18.3407 25.2976 19.0768 25.0898C19.5771 26.6966 20.2302 28.3859 21.0266 30.1106ZM27.8976 22.0113C28.6625 21.9766 29.4403 21.9588 30.2281 21.9588C31.016 21.9588 31.7937 21.9766 32.5586 22.0113C31.7889 20.9986 31.0074 20.0645 30.2281 19.2195C29.4488 20.0645 28.6673 20.9986 27.8976 22.0113ZM33.7935 30.1105C33.7935 32.0742 32.1966 33.6661 30.2268 33.6661C28.2569 33.6661 26.66 32.0742 26.66 30.1105C26.66 28.1468 28.2569 26.5549 30.2268 26.5549C32.1966 26.5549 33.7935 28.1468 33.7935 30.1105Z" fill="#61DAFB"/>
</svg>
