<svg width="60" height="60" viewBox="0 0 60 60" fill="none" xmlns="http://www.w3.org/2000/svg">
<path d="M39.2894 35.6156C38.4043 35.6156 37.6843 34.8951 37.6843 34.0098C37.6843 33.1246 38.4043 32.4045 39.2894 32.4045C40.1745 32.4045 40.8944 33.1246 40.8944 34.0098C40.8944 34.8951 40.1745 35.6156 39.2894 35.6156ZM21.548 35.6156C20.6629 35.6156 19.943 34.8951 19.943 34.0098C19.943 33.1246 20.6629 32.4045 21.548 32.4045C22.4331 32.4045 23.1531 33.1246 23.1531 34.0098C23.1531 34.8951 22.4331 35.6156 21.548 35.6156ZM39.865 25.9453L43.073 20.3886C43.2569 20.0692 43.1475 19.6612 42.8287 19.4768C42.5098 19.2929 42.1014 19.4023 41.917 19.7211L38.6689 25.3482C36.185 24.2145 33.3954 23.583 30.4187 23.583C27.442 23.583 24.6523 24.2145 22.1685 25.3482L18.9204 19.7211C18.736 19.4023 18.3275 19.2929 18.0087 19.4768C17.6899 19.6612 17.58 20.0692 17.7644 20.3886L20.9724 25.9453C15.4639 28.9418 11.6964 34.5194 11.1453 41.1088H49.6921C49.1405 34.5194 45.373 28.9418 39.865 25.9453Z" fill="#3DDB85"/>
</svg>
