<svg width="60" height="60" viewBox="0 0 60 60" fill="none" xmlns="http://www.w3.org/2000/svg">
<path d="M19.5394 23.0378V23.3915C19.2972 23.4106 19.0933 23.4775 18.9276 23.5922C18.7619 23.7069 18.6153 23.8822 18.4879 24.118C18.4496 24.1944 18.2489 24.6883 17.8856 25.5996L13.823 36.2963H13.4502L10.2383 27.9416L6.70142 36.2963H6.34773L2.08435 25.7144C1.651 24.6501 1.3483 24.0065 1.17623 23.7834C1.00417 23.5604 0.714207 23.4297 0.30635 23.3915V23.0378H5.92713V23.3915C5.47466 23.4042 5.17196 23.4743 5.01901 23.6018C4.87244 23.7229 4.79915 23.8758 4.79915 24.0606C4.79915 24.3028 4.95528 24.8158 5.26755 25.5996L7.81028 31.8896L9.84638 26.9762L9.31107 25.5996C9.01792 24.8477 8.79169 24.3474 8.63237 24.0989C8.47305 23.8439 8.28824 23.6623 8.07794 23.554C7.87401 23.4456 7.57131 23.3915 7.16982 23.3915V23.0378H13.4502V23.3915C13.0105 23.3979 12.695 23.4329 12.5038 23.4966C12.37 23.5412 12.2648 23.6177 12.1884 23.726C12.1119 23.828 12.0737 23.9459 12.0737 24.0797C12.0737 24.2263 12.2171 24.6756 12.5038 25.4276L14.8649 31.5646L16.9775 26.0107C17.2006 25.4371 17.3376 25.0452 17.3886 24.8349C17.4395 24.6246 17.465 24.4302 17.465 24.2518C17.465 23.9905 17.3758 23.7866 17.1974 23.64C17.0189 23.4871 16.678 23.4042 16.1745 23.3915V23.0378H19.5394ZM39.1165 23.0378V23.3915C38.8743 23.4106 38.6704 23.4775 38.5047 23.5922C38.339 23.7069 38.1925 23.8822 38.065 24.118C38.0268 24.1944 37.826 24.6883 37.4628 25.5996L33.4001 36.2963H33.0273L29.8155 27.9416L26.2786 36.2963H25.9249L21.6615 25.7144C21.2281 24.6501 20.9254 24.0065 20.7534 23.7834C20.5813 23.5604 20.2913 23.4297 19.8835 23.3915V23.0378H25.5043V23.3915C25.0518 23.4042 24.7491 23.4743 24.5962 23.6018C24.4496 23.7229 24.3763 23.8758 24.3763 24.0606C24.3763 24.3028 24.5324 24.8158 24.8447 25.5996L27.3874 31.8896L29.4235 26.9762L28.8882 25.5996C28.5951 24.8477 28.3688 24.3474 28.2095 24.0989C28.0502 23.8439 27.8654 23.6623 27.6551 23.554C27.4512 23.4456 27.1484 23.3915 26.747 23.3915V23.0378H33.0273V23.3915C32.5876 23.3979 32.2722 23.4329 32.081 23.4966C31.9471 23.5412 31.842 23.6177 31.7655 23.726C31.689 23.828 31.6508 23.9459 31.6508 24.0797C31.6508 24.2263 31.7942 24.6756 32.081 25.4276L34.4421 31.5646L36.5547 26.0107C36.7777 25.4371 36.9147 25.0452 36.9657 24.8349C37.0167 24.6246 37.0422 24.4302 37.0422 24.2518C37.0422 23.9905 36.953 23.7866 36.7745 23.64C36.5961 23.4871 36.2551 23.4042 35.7517 23.3915V23.0378H39.1165ZM58.6936 23.0378V23.3915C58.4515 23.4106 58.2476 23.4775 58.0819 23.5922C57.9162 23.7069 57.7696 23.8822 57.6421 24.118C57.6039 24.1944 57.4032 24.6883 57.0399 25.5996L52.9773 36.2963H52.6045L49.3926 27.9416L45.8557 36.2963H45.502L41.2386 25.7144C40.8053 24.6501 40.5026 24.0065 40.3305 23.7834C40.1585 23.5604 39.8685 23.4297 39.4606 23.3915V23.0378H45.0814V23.3915C44.6289 23.4042 44.3262 23.4743 44.1733 23.6018C44.0267 23.7229 43.9534 23.8758 43.9534 24.0606C43.9534 24.3028 44.1096 24.8158 44.4218 25.5996L46.9646 31.8896L49.0007 26.9762L48.4654 25.5996C48.1722 24.8477 47.946 24.3474 47.7867 24.0989C47.6273 23.8439 47.4425 23.6623 47.2322 23.554C47.0283 23.4456 46.7256 23.3915 46.3241 23.3915V23.0378H52.6045V23.3915C52.1647 23.3979 51.8493 23.4329 51.6581 23.4966C51.5243 23.5412 51.4191 23.6177 51.3427 23.726C51.2662 23.828 51.228 23.9459 51.228 24.0797C51.228 24.2263 51.3713 24.6756 51.6581 25.4276L54.0192 31.5646L56.1318 26.0107C56.3548 25.4371 56.4919 25.0452 56.5428 24.8349C56.5938 24.6246 56.6193 24.4302 56.6193 24.2518C56.6193 23.9905 56.5301 23.7866 56.3517 23.64C56.1732 23.4871 55.8323 23.4042 55.3288 23.3915V23.0378H58.6936Z" fill="black"/>
</svg>
