<svg width="140" height="60" viewBox="0 0 140 60" fill="none" xmlns="http://www.w3.org/2000/svg">
<path fill-rule="evenodd" clip-rule="evenodd" d="M41.7097 33.527C41.7097 34.2102 42.2004 34.7617 42.863 34.7617V34.7615C43.5502 34.7615 44.0162 34.21 44.0162 33.5267V28.0893C44.0162 25.016 42.593 22.8356 39.6236 22.8356C37.8815 22.8356 36.4828 23.5975 35.5259 25.1735C34.8633 23.7812 33.5381 22.8356 31.7713 22.8356C30.3235 22.8356 28.9739 23.6499 28.3114 25.0421V24.2015C28.3114 23.5185 27.9432 22.9407 27.158 22.9407C26.4465 22.9407 26.0046 23.4661 26.0046 24.2015V33.527C26.0046 34.2102 26.4956 34.7617 27.1582 34.7617C27.8454 34.7617 28.3115 34.2102 28.3115 33.527V28.2996C28.3115 26.5657 29.293 25.0684 31.1579 25.0684C32.9739 25.0684 33.8573 26.4607 33.8573 28.2731V33.527C33.8573 34.2102 34.3236 34.7617 35.0107 34.7617C35.7222 34.7617 36.164 34.2102 36.164 33.527V28.2996C36.164 26.5657 37.2682 25.0684 39.0841 25.0684C40.9001 25.0684 41.7097 26.4607 41.7097 28.2731V33.527ZM48.6051 19.7095C48.6051 18.9215 47.9917 18.2648 47.2555 18.2648C46.5192 18.2648 45.9058 18.9215 45.9058 19.7095C45.9058 20.4975 46.5194 21.1543 47.2555 21.1543C47.9917 21.1543 48.6051 20.4975 48.6051 19.7095ZM46.1022 33.527C46.1022 34.2104 46.5684 34.7619 47.2555 34.7619V34.7617C47.9426 34.7617 48.4086 34.2102 48.4089 33.527V24.1752C48.4089 23.4922 47.9181 22.9406 47.2555 22.9406C46.5929 22.9406 46.1022 23.4922 46.1022 24.1752V33.527ZM57.8313 23.3084L54.9112 27.1962L51.9911 23.3086C51.7946 23.0723 51.5493 22.9407 51.2304 22.9407C50.5924 22.9407 50.1751 23.3874 50.1751 24.0177C50.1751 24.2541 50.2487 24.4903 50.4451 24.727L53.6597 28.8248L50.3959 32.9489C50.2242 33.1592 50.126 33.3692 50.126 33.6845C50.126 34.2884 50.6168 34.7615 51.1566 34.7615C51.5003 34.7615 51.77 34.6296 51.9665 34.3671L54.9112 30.4535L57.8558 34.3671C58.0521 34.6301 58.3219 34.7615 58.6655 34.7615C59.2054 34.7615 59.6962 34.2891 59.6962 33.6845C59.6962 33.3692 59.598 33.1592 59.4264 32.9489L56.1626 28.825L59.3772 24.727C59.5734 24.4905 59.6471 24.2541 59.6471 24.0177C59.6471 23.3872 59.2299 22.9406 58.5921 22.9406C58.273 22.9406 58.0275 23.0719 57.8313 23.3084ZM63.7206 32.6081C64.5058 33.9479 65.8554 34.8669 67.4995 34.8669C70.3214 34.8669 72.6281 32.4763 72.6281 28.8515C72.6281 25.3575 70.3214 22.8359 67.4995 22.8359C65.8554 22.8359 64.3832 23.7291 63.6471 25.0951V24.2015C63.6471 23.5185 63.2298 22.9406 62.5181 22.9406C61.8065 22.9406 61.4139 23.4922 61.4139 24.1752V38.4397C61.4139 39.1226 61.8801 39.674 62.5672 39.674C63.2544 39.674 63.7206 39.1228 63.7206 38.4397V32.6081ZM63.7208 28.8513C63.7208 26.7495 65.0457 24.8847 67.0335 24.8847C69.0208 24.8847 70.3214 26.4872 70.3214 28.8513C70.3214 31.2157 69.0212 32.8179 67.0337 32.8179C65.0459 32.8179 63.7208 30.9533 63.7208 28.8513ZM83.6461 34.7617C84.3578 34.7617 84.7995 34.2102 84.7995 33.527H84.8002V28.8512C84.8002 25.3048 82.7142 22.8357 79.1806 22.8357C75.7209 22.8357 73.512 25.5676 73.512 28.8512C73.512 32.1877 75.4992 34.8669 78.9354 34.8669C80.5299 34.8669 81.8305 34.0524 82.5177 32.9491V33.527C82.5177 34.2102 82.9589 34.7617 83.6461 34.7617ZM75.8181 28.8512C75.8181 26.6975 77.1924 24.9371 79.1555 24.9371C81.1186 24.9371 82.4926 26.4344 82.4926 28.8512C82.4926 30.9001 81.192 32.7653 79.1555 32.7653C76.9713 32.7653 75.8181 31.1104 75.8181 28.8512ZM96.8968 28.3261C96.8968 25.2527 94.7131 22.8359 91.7442 22.8359C88.7746 22.8359 86.6152 25.2525 86.6152 28.3259V33.5272C86.615 33.6894 86.6447 33.8501 86.7026 33.9999C86.7604 34.1498 86.8454 34.2861 86.9526 34.4008C87.0597 34.5155 87.1869 34.6064 87.3269 34.6683C87.4669 34.7303 87.617 34.7621 87.7685 34.7619C87.92 34.7621 88.0702 34.7303 88.2102 34.6683C88.3501 34.6064 88.4774 34.5155 88.5845 34.4008C88.6917 34.2861 88.7767 34.1498 88.8345 34C88.8924 33.8501 88.9221 33.6894 88.9219 33.5272V28.0369C88.9219 26.3817 90.1245 25.095 91.7442 25.095C93.3633 25.095 94.5902 26.382 94.5902 28.0369V33.5272C94.59 33.6894 94.6198 33.8501 94.6776 33.9999C94.7355 34.1498 94.8204 34.2861 94.9275 34.4008C95.0347 34.5155 95.1619 34.6064 95.302 34.6683C95.442 34.7303 95.592 34.7621 95.7436 34.7619C95.8951 34.7621 96.0451 34.7303 96.1852 34.6683C96.3252 34.6064 96.4525 34.5155 96.5596 34.4008C96.6667 34.2861 96.7516 34.1498 96.8096 34C96.8674 33.8501 96.8971 33.6894 96.8968 33.5272V28.3261ZM108.013 29.7181C108.675 29.7181 108.896 29.2978 108.897 28.8776C108.897 25.515 106.884 22.8359 103.792 22.8349C100.627 22.8349 98.2952 25.4092 98.2952 28.8504C98.2952 32.134 100.234 34.8663 103.891 34.8663C105.657 34.8663 107.326 34.1042 108.259 32.9484C108.43 32.7383 108.553 32.5017 108.553 32.2394C108.553 31.6092 108.111 31.2149 107.596 31.2149C107.301 31.2149 107.032 31.3992 106.835 31.6092C106.026 32.4234 105.264 32.8963 103.988 32.8963C101.952 32.8963 100.799 31.5306 100.676 29.7181H108.013ZM100.725 27.722C100.946 26.0929 102.099 24.8061 103.792 24.8061H103.792C105.461 24.8061 106.565 26.1455 106.762 27.722H100.725ZM110.442 33.527C110.442 34.2102 110.909 34.7617 111.595 34.7617C112.282 34.7617 112.749 34.2102 112.749 33.527V18.0813C112.749 17.3979 112.282 16.8466 111.595 16.8466C110.909 16.8466 110.442 17.3979 110.442 18.0813V33.527ZM33.7444 43.214C33.7444 45.442 32.0572 47.2481 29.976 47.2481C27.8947 47.2481 26.2076 45.442 26.2076 43.214C26.2076 40.9861 27.8947 39.1799 29.976 39.1799C32.0572 39.1799 33.7444 40.9861 33.7444 43.214ZM46.2478 43.258C46.2478 44.8338 45.0545 46.1113 43.5824 46.1113C42.1103 46.1113 40.917 44.8338 40.917 43.258C40.917 41.6821 42.1103 40.4046 43.5824 40.4046C45.0545 40.4046 46.2478 41.6821 46.2478 43.258ZM54.796 44.5535C55.4644 44.5535 56.0062 43.9735 56.0062 43.2581C56.0062 42.5426 55.4644 41.9626 54.796 41.9626C54.1277 41.9626 53.586 42.5426 53.586 43.2581C53.586 43.9735 54.1277 44.5535 54.796 44.5535Z" fill="#33547D"/>
</svg>
