<svg width="140" height="60" viewBox="0 0 140 60" fill="none" xmlns="http://www.w3.org/2000/svg">
<path d="M87.5 30.1196C87.5 20.4536 79.666 12.6196 70 12.6196C60.334 12.6196 52.5 20.4536 52.5 30.1196C52.5 38.856 58.8984 46.0952 67.2656 47.4077V35.1782H62.8223V30.1196H67.2656V26.2642C67.2656 21.8789 69.877 19.4556 73.876 19.4556C75.79 19.4556 77.793 19.7974 77.793 19.7974V24.104H75.585C73.4111 24.104 72.7344 25.4541 72.7344 26.8384V30.1196H77.5879L76.812 35.1782H72.7344V47.4077C81.1016 46.0952 87.5 38.856 87.5 30.1196Z" fill="#1877F2"/>
<path d="M76.812 35.1782L77.5879 30.1196H72.7344V26.8384C72.7344 25.4541 73.4111 24.104 75.585 24.104H77.793V19.7974C77.793 19.7974 75.79 19.4556 73.876 19.4556C69.877 19.4556 67.2656 21.8789 67.2656 26.2642V30.1196H62.8223V35.1782H67.2656V47.4077C68.1577 47.5479 69.0703 47.6196 70 47.6196C70.9297 47.6196 71.8423 47.5479 72.7344 47.4077V35.1782H76.812Z" fill="white"/>
</svg>
