<svg width="140" height="60" viewBox="0 0 140 60" fill="none" xmlns="http://www.w3.org/2000/svg">
<path d="M67.3833 34.9399C67.3833 33.9315 67.0245 33.2324 65.9084 33.2324C64.9251 33.2324 64.3405 33.7702 64.3405 34.792C64.3405 37.4943 68.825 35.881 68.825 39.39C68.825 41.6084 67.2172 42.247 65.8752 42.247C63.6562 42.247 63.0051 41.0908 63.0051 39.0539H64.1678C64.1678 40.1295 64.2342 41.2857 65.9483 41.2857C66.1688 41.2929 66.3885 41.2539 66.5934 41.1709C66.7983 41.088 66.984 40.963 67.1388 40.8039C67.2936 40.6447 67.4141 40.4548 67.4928 40.2462C67.5715 40.0376 67.6066 39.8147 67.5959 39.5917C67.5959 36.8759 63.1114 38.4489 63.1114 34.9264C63.1114 34.0391 63.4835 32.2778 65.8885 32.2778C67.6955 32.2778 68.5194 33.1921 68.5459 34.9533L67.3833 34.9399Z" fill="black"/>
<path d="M71.9541 36.6877H72.5387C73.5353 36.6877 73.9737 35.9617 73.9737 35.0071C73.9737 34.1332 73.6548 33.4206 72.7513 33.4206C71.5156 33.4206 71.396 34.5769 71.396 35.2693H70.2334C70.2334 33.6425 70.9907 32.5266 72.7247 32.5266C74.6913 32.5266 75.143 33.9382 75.143 35.0004C75.143 35.9549 74.6647 36.802 73.6814 37.044V37.0708C74.7444 37.286 75.4221 37.9716 75.4221 39.2892C75.4221 41.0236 74.5584 42.2336 72.7513 42.2336C70.2267 42.2336 70.0806 40.0018 70.0806 39.585V39.464H71.2432C71.2432 40.3379 71.6684 41.3462 72.738 41.3462C73.429 41.3462 74.2328 40.9967 74.2328 39.3833C74.2328 38.2674 73.7014 37.5683 72.5321 37.5683H71.9341L71.9541 36.6877Z" fill="black"/>
<path d="M34.8424 13.8755C36.7425 12.9159 38.636 11.9445 40.5427 11C40.5593 14.1931 40.5427 17.3996 40.5427 20.5995C38.6858 21.0163 36.8521 21.5406 34.9952 21.9557L35.251 22.1238L34.8624 22.0784C34.8192 21.186 34.8624 20.2919 34.8391 19.3995C34.8391 17.5543 34.8424 15.714 34.8424 13.8755V13.8755Z" fill="#8C3223"/>
<path d="M40.543 11C42.4442 11.9635 44.3465 12.9254 46.2499 13.8856V19.3928C46.2399 20.2465 46.2499 21.102 46.2499 21.9557L46.127 21.9893C44.2717 21.5171 42.4181 21.0314 40.5529 20.5995C40.5413 17.3996 40.5596 14.1931 40.543 11V11Z" fill="#E15343"/>
<path d="M25 18.85C25.8437 18.4332 26.6759 17.9895 27.5263 17.5828C27.5196 25.8479 27.5196 34.113 27.5263 42.3781C26.6759 41.9832 25.8504 41.5378 25.0066 41.121C25.0022 33.7007 25 26.277 25 18.85Z" fill="#8C3223"/>
<path d="M27.5265 17.5828C29.9597 18.2131 32.4096 18.7727 34.8445 19.4029C34.8611 20.2953 34.8245 21.1894 34.8677 22.0818L35.2564 22.1271C37.0203 22.4162 38.7659 22.7994 40.5314 23.0699C40.5514 23.7909 40.548 24.5102 40.5314 25.2312C38.6413 25.453 36.7429 25.6866 34.8478 25.9572C34.8478 28.6612 34.8577 31.367 34.8478 34.071C36.7379 34.3685 38.6413 34.5752 40.5381 34.8172C40.5763 35.5281 40.5514 36.2406 40.5497 36.9532C38.6463 37.2776 36.7495 37.6389 34.8544 38.0052V40.5748C32.4062 41.1916 29.9597 41.7546 27.5215 42.3764C27.5303 34.1125 27.532 25.8479 27.5265 17.5828V17.5828Z" fill="#E15343"/>
<path d="M46.2463 19.3928C48.6878 18.7794 51.1343 18.1878 53.5792 17.5912C53.5704 25.6188 53.5704 33.6464 53.5792 41.6739C53.5792 41.9025 53.556 42.1311 53.536 42.3596C51.1044 41.7765 48.6779 41.1832 46.2479 40.5799C46.238 39.7228 46.2479 38.864 46.2479 38.0052C44.3495 37.6389 42.4478 37.2775 40.541 36.9498C40.541 36.2373 40.5676 35.5247 40.5294 34.8138C38.6326 34.5768 36.7292 34.3651 34.8391 34.0676C34.8574 31.3636 34.8391 28.6578 34.8391 25.9538C36.7425 25.6866 38.6409 25.453 40.5394 25.2227C40.5477 24.5018 40.551 23.7825 40.5394 23.0615C42.1355 22.8313 43.7134 22.4699 45.3095 22.2212C45.5903 22.1749 45.8654 22.0983 46.13 21.9927L46.2529 21.9591C46.2413 21.1003 46.2363 20.2432 46.2463 19.3928V19.3928Z" fill="#8C3223"/>
<path d="M53.5811 17.5912C54.4116 18.0231 55.262 18.4315 56.0974 18.8701C56.0897 26.286 56.0897 33.7018 56.0974 41.1177C55.2437 41.5529 54.38 41.9714 53.533 42.4235V42.3613C53.5529 42.1327 53.5695 41.9042 53.5761 41.6756C53.5773 33.6469 53.5789 25.6188 53.5811 17.5912V17.5912Z" fill="#E15343"/>
<path d="M35.0005 21.9557C36.8591 21.5406 38.691 21.0163 40.5479 20.5995C42.4132 21.0314 44.2667 21.5171 46.122 21.9893C45.8573 22.0949 45.5823 22.1715 45.3015 22.2179C43.707 22.47 42.1291 22.8313 40.5313 23.0582C38.7641 22.7893 37.0185 22.4044 35.2563 22.1154C35.1716 22.0666 35.0852 22.0128 35.0005 21.9557Z" fill="#5E1F19"/>
<path d="M40.5611 25.2261C42.4546 25.4647 44.3513 25.6933 46.2431 25.9572V34.0693C44.3464 34.3483 42.443 34.5903 40.5396 34.8054C40.5661 31.6106 40.5246 28.4175 40.5611 25.2261Z" fill="#E15343"/>
<path d="M34.8474 38.0019C36.7409 37.6355 38.6393 37.2742 40.5427 36.9498C42.4478 37.2775 44.3495 37.6389 46.2496 38.0052C44.3478 38.4792 42.4511 38.985 40.541 39.4287C38.6376 38.9699 36.7425 38.4859 34.8474 38.0019V38.0019Z" fill="#F2B0A9"/>
<path d="M34.8424 40.5782C34.8507 39.7211 34.8424 38.8657 34.8424 38.0086C36.7375 38.4909 38.6343 38.9766 40.5344 39.4354C40.5543 42.6285 40.5427 45.8317 40.5344 49.0281C38.626 48.0853 36.7326 47.1123 34.8308 46.1527C34.8386 44.2917 34.8424 42.4335 34.8424 40.5782Z" fill="#8C3223"/>
<path d="M40.5396 39.4304C42.4496 38.9867 44.3464 38.4808 46.2481 38.0069C46.2398 38.864 46.2365 39.7228 46.2481 40.5816C46.2564 42.4302 46.2481 44.2788 46.2481 46.1392C44.3458 47.0994 42.4446 48.0613 40.5445 49.0248C40.5479 45.825 40.5595 42.6268 40.5396 39.4304Z" fill="#E15343"/>
<path d="M66.7537 19.8617C65.219 19.8617 63.5232 20.4633 63.1528 22.4296C63.1446 22.4659 63.1436 22.5034 63.15 22.54C63.1563 22.5766 63.1699 22.6116 63.1899 22.6428C63.2099 22.674 63.2359 22.7008 63.2663 22.7216C63.2968 22.7425 63.331 22.7569 63.3671 22.7641H63.3937L64.9682 22.9556C65.0403 22.9344 65.1038 22.8903 65.1493 22.8297C65.1947 22.7692 65.2198 22.6955 65.2207 22.6195C65.2802 22.3213 65.4454 22.0553 65.6853 21.8718C65.9251 21.6882 66.223 21.5997 66.5228 21.6229C66.6955 21.6152 66.8674 21.6497 67.0241 21.7234C67.1808 21.7971 67.3176 21.9079 67.423 22.0465C67.6066 22.4216 67.6798 22.8421 67.634 23.2581V23.4901C66.5969 23.5343 65.5713 23.7273 64.5879 24.0631C64.0614 24.2891 63.6151 24.6716 63.3081 25.1598C63.0012 25.6481 62.848 26.2192 62.8688 26.7974C62.8688 28.5419 63.9451 29.4108 65.2805 29.4108C65.789 29.4418 66.2974 29.3478 66.7622 29.1368C67.227 28.9257 67.6344 28.604 67.9496 28.1991C68.1831 28.6134 68.488 28.9822 68.8498 29.2881C68.9099 29.3208 68.9784 29.334 69.0462 29.3258C69.1139 29.3177 69.1776 29.2887 69.2285 29.2427C69.5606 28.9419 70.1287 28.4024 70.4658 28.1184C70.5254 28.0579 70.5588 27.976 70.5588 27.8907C70.5588 27.8053 70.5254 27.7234 70.4658 27.6629C70.0743 27.2434 69.8527 26.6904 69.8447 26.1135V23.5825C69.8447 22.4935 69.9344 21.4566 69.1521 20.6902C68.4782 20.1291 67.626 19.8347 66.7537 19.8617V19.8617ZM87.9055 19.8617C86.3708 19.8617 84.675 20.4633 84.3046 22.4296C84.296 22.4655 84.2946 22.5028 84.3004 22.5392C84.3062 22.5756 84.3192 22.6105 84.3385 22.6419C84.3579 22.6732 84.3832 22.7002 84.413 22.7215C84.4428 22.7428 84.4766 22.7578 84.5122 22.7657H84.5388L86.1216 22.954C86.1978 22.9368 86.2661 22.8944 86.3157 22.8335C86.3653 22.7726 86.3935 22.6967 86.3957 22.6178C86.4552 22.3199 86.6201 22.0542 86.8596 21.8707C87.0991 21.6871 87.3966 21.5985 87.6962 21.6213C87.8688 21.6136 88.0407 21.648 88.1974 21.7217C88.3541 21.7954 88.491 21.9062 88.5964 22.0448C88.7706 22.4233 88.834 22.8443 88.7791 23.2581V23.4901C87.7491 23.5345 86.7307 23.7275 85.7546 24.0631C85.2281 24.2891 84.7818 24.6716 84.4748 25.1598C84.1679 25.6481 84.0147 26.2192 84.0355 26.7974C84.0355 28.5419 85.1118 29.4108 86.4472 29.4108C86.9549 29.4409 87.4622 29.3465 87.9261 29.1356C88.39 28.9246 88.7966 28.6033 89.1113 28.1991C89.3445 28.6137 89.6494 28.9825 90.0115 29.2881C90.0716 29.3208 90.1402 29.334 90.2079 29.3258C90.2757 29.3177 90.3393 29.2887 90.3902 29.2427C90.7224 28.9419 91.2904 28.4024 91.6276 28.1184C91.6841 28.0563 91.7154 27.975 91.7154 27.8907C91.7154 27.8063 91.6841 27.725 91.6276 27.6629C91.2413 27.2418 91.0245 26.6897 91.0197 26.1151V23.5825C91.0197 22.4935 91.0911 21.4566 90.3088 20.6902C89.6357 20.1242 88.78 19.8292 87.9055 19.8617V19.8617ZM76.0067 19.9474C75.5292 19.9367 75.0617 20.0864 74.6773 20.3732C74.293 20.6599 74.0134 21.0675 73.8823 21.5322V20.4112C73.8773 20.3332 73.8443 20.2596 73.7896 20.2042C73.7349 20.1489 73.6622 20.1156 73.585 20.1104H72.0902C72.0085 20.1126 71.9307 20.1463 71.8729 20.2048C71.8151 20.2633 71.7817 20.342 71.7796 20.4247V29.0259C71.7873 29.103 71.8211 29.1751 71.8753 29.23C71.9294 29.2848 72.0007 29.319 72.0769 29.3267H73.693C73.7747 29.3246 73.8525 29.2908 73.9103 29.2323C73.9681 29.1738 74.0015 29.0951 74.0036 29.0125V24.4598C74.0036 23.4632 73.9538 22.107 75.1147 22.107C76.2757 22.107 76.0997 23.5102 76.0997 24.4598V29.0141C76.1044 29.0937 76.1368 29.1689 76.1913 29.2265C76.2458 29.2841 76.3186 29.3202 76.397 29.3284H78.013C78.0948 29.3263 78.1725 29.2925 78.2303 29.234C78.2881 29.1755 78.3215 29.0968 78.3236 29.0141V24.4598C78.2864 23.9104 78.3352 23.3585 78.4681 22.8246C78.5366 22.6226 78.6622 22.4455 78.8294 22.3153C78.9965 22.185 79.1978 22.1073 79.4082 22.0918C79.6288 22.0637 79.8514 22.1249 80.0275 22.2622C80.2036 22.3994 80.3189 22.6016 80.3483 22.8246C80.402 23.3678 80.417 23.9143 80.3931 24.4598V29.0141C80.3978 29.0937 80.4303 29.1689 80.4848 29.2265C80.5392 29.2841 80.6121 29.3202 80.6904 29.3284H82.3015C82.3832 29.3263 82.461 29.2925 82.5188 29.234C82.5766 29.1755 82.61 29.0968 82.6121 29.0141V23.5539C82.6121 22.6431 82.7018 21.5826 82.1936 20.8532C81.9327 20.5227 81.5896 20.2684 81.1994 20.1166C80.8092 19.9647 80.3861 19.9207 79.9736 19.9892C79.561 20.0577 79.174 20.2361 78.8522 20.5061C78.5304 20.7761 78.2854 21.1279 78.1426 21.5255C77.6443 20.4516 77.0132 19.9541 76.005 19.9541L76.0067 19.9474ZM103.49 19.9474C101.165 19.9474 99.8574 22.0246 99.8574 24.7018C99.8574 27.3789 101.14 29.5015 103.49 29.5015C105.74 29.5015 107.18 27.4109 107.18 24.7841C107.18 22.0801 105.872 19.9474 103.458 19.9474H103.49ZM112.706 19.9474C111.59 19.9474 110.956 20.4936 110.501 21.6868V20.376C110.483 20.31 110.444 20.2518 110.391 20.2099C110.338 20.1681 110.272 20.1449 110.205 20.144H108.71C108.633 20.1424 108.559 20.1699 108.501 20.2213C108.444 20.2727 108.407 20.3441 108.399 20.4213V29.0141C108.404 29.0937 108.437 29.1689 108.491 29.2265C108.546 29.2841 108.618 29.3202 108.697 29.3284H110.313C110.395 29.3263 110.472 29.2925 110.53 29.234C110.588 29.1755 110.621 29.0968 110.623 29.0141V24.3875C110.6 23.829 110.694 23.2718 110.897 22.7523C110.963 22.5656 111.079 22.4014 111.233 22.2788C111.387 22.1563 111.571 22.0804 111.766 22.0599C112.882 22.0599 112.774 23.4262 112.774 24.3724V29.0444C112.785 29.1183 112.82 29.1862 112.874 29.2368C112.928 29.2874 112.998 29.3174 113.072 29.3217H114.689C114.765 29.3204 114.838 29.2918 114.895 29.241C114.952 29.1902 114.989 29.1205 115 29.0444V23.6413C115 22.801 115 21.6515 114.581 20.9642C114.385 20.6403 114.107 20.3752 113.775 20.196C113.444 20.0167 113.072 19.9298 112.696 19.944L112.706 19.9474ZM93.3051 20.0936C93.2262 20.0936 93.1506 20.1253 93.0949 20.1817C93.0391 20.2381 93.0078 20.3147 93.0078 20.3944V21.628C93.0041 21.707 93.0314 21.7842 93.0836 21.843C93.1358 21.9018 93.2088 21.9375 93.2868 21.9423H96.0722L92.9164 26.6731C92.7647 26.9261 92.687 27.2175 92.6922 27.5134V28.7654C92.69 28.8123 92.6993 28.8591 92.7194 28.9014C92.7395 28.9437 92.7697 28.9803 92.8073 29.0078C92.8449 29.0354 92.8887 29.053 92.9347 29.0591C92.9808 29.0652 93.0276 29.0595 93.0709 29.0427C93.9333 28.5784 94.8952 28.3355 95.872 28.3355C96.8489 28.3355 97.8108 28.5784 98.6732 29.0427C98.718 29.0614 98.7667 29.0685 98.8149 29.0634C98.8631 29.0583 98.9094 29.0411 98.9494 29.0134C98.9894 28.9858 99.022 28.9485 99.0443 28.9049C99.0665 28.8613 99.0777 28.8128 99.0768 28.7637V27.4697C99.071 27.3741 99.0406 27.2816 98.9884 27.2017C98.9362 27.1218 98.8641 27.0571 98.7795 27.0142C97.8526 26.5086 96.8066 26.2697 95.7549 26.3235L98.5054 22.2246C98.7028 22.0089 98.8424 21.7457 98.9107 21.4599V20.4112C98.9143 20.3323 98.8871 20.255 98.8349 20.1962C98.7826 20.1374 98.7096 20.1018 98.6316 20.097H93.3167L93.3051 20.0936ZM103.485 21.7288C103.732 21.7131 103.977 21.7882 104.174 21.9404C104.371 22.0926 104.507 22.3117 104.558 22.5573C104.74 23.3017 104.817 24.0683 104.787 24.8345C104.787 25.9235 104.732 27.7621 103.486 27.7621C102.241 27.7621 102.233 25.4849 102.233 24.4446C102.233 23.4044 102.287 21.712 103.457 21.712L103.485 21.7288ZM67.6091 24.848V25.2076C67.6707 25.8161 67.568 26.43 67.3118 26.984C67.2125 27.2014 67.0566 27.3874 66.8609 27.5221C66.6652 27.6568 66.4369 27.7351 66.2006 27.7487C65.5794 27.7487 65.2157 27.2445 65.2157 26.5151C65.1974 25.1034 66.4531 24.853 67.6141 24.853L67.6091 24.848ZM88.7608 24.848V25.2076C88.8242 25.8188 88.7214 26.436 88.4635 26.9924C88.3647 27.2101 88.2089 27.3964 88.0131 27.5312C87.8173 27.666 87.5888 27.744 87.3524 27.7571C86.7312 27.7571 86.3674 27.2529 86.3674 26.5235C86.3674 25.0984 87.5915 24.8429 88.7525 24.8429L88.7608 24.848Z" fill="#201C1D"/>
</svg>
