<svg width="140" height="60" viewBox="0 0 140 60" fill="none" xmlns="http://www.w3.org/2000/svg">
<path d="M10.3186 22.4209L15.421 32.0371C15.7655 32.7026 16.6266 33.2177 17.3371 33.2177L27.7572 33.1963C28.4677 33.1963 28.7691 32.6597 28.4247 32.0157L23.3006 22.3994C22.9562 21.734 22.0951 21.2188 21.3846 21.2188L10.9645 21.2403C10.9429 21.2403 10.9429 21.2403 10.9214 21.2403C10.254 21.2618 9.9741 21.7769 10.3186 22.4209Z" fill="#88B027"/>
<path d="M30.1026 33.6255L33.2028 39.3352C33.4181 39.7216 33.9347 40.0435 34.3438 40.022L40.5442 39.9576C40.9748 39.9576 41.147 39.6357 40.9318 39.2493L37.8316 33.5396C37.6163 33.1532 37.0995 32.8313 36.6905 32.8528L30.4901 32.9172H30.4685C30.0595 32.9387 29.9088 33.2391 30.1026 33.6255Z" fill="#88B027"/>
<path d="M30.1486 11.9675L23.9482 19.8451C23.5176 20.3818 23.4745 21.3477 23.819 22.0131L29.0075 31.5865C29.352 32.2304 29.9979 32.3378 30.4069 31.8011L36.6073 23.9235C37.0379 23.3869 37.0809 22.421 36.7365 21.777L31.5479 12.2036C31.3326 11.8172 31.0528 11.6456 30.7514 11.6456C30.5361 11.6241 30.3208 11.7314 30.1486 11.9675Z" fill="#008ECF"/>
<path d="M28.7056 33.7327L25.0026 38.4335C24.7443 38.7555 24.7228 39.335 24.938 39.7214L28.0383 45.4311C28.2535 45.8174 28.6195 45.8818 28.8778 45.5598L32.5809 40.8591C32.8393 40.5371 32.8608 39.9575 32.6455 39.5712L29.5453 33.8615C29.4161 33.6468 29.2439 33.518 29.0716 33.518C28.9209 33.518 28.7917 33.5824 28.7056 33.7327Z" fill="#008ECF"/>
<path d="M98.6288 19.9525H96.5625V35.3858H98.6288V19.9525Z" fill="#008ECF"/>
<path d="M59.4274 24.8464C56.4565 24.8464 54.0452 27.229 54.0452 30.1697V40.0006H56.1119V34.3768V30.1912C56.1119 28.3667 57.5975 26.907 59.449 26.907C61.279 26.907 62.786 28.3881 62.786 30.1912C62.786 32.0157 61.3005 33.4753 59.449 33.4753C58.4156 33.4753 57.4898 33.003 56.8655 32.2733V34.8706C57.619 35.2783 58.5017 35.5145 59.4059 35.5145C62.3769 35.5145 64.7883 33.1318 64.7883 30.1912C64.8098 27.2076 62.3985 24.8249 59.4274 24.8464Z" fill="#88B027"/>
<path d="M71.1179 24.8248C68.1468 24.8248 65.7356 27.2075 65.7356 30.1481V39.9791H67.8024V34.3553V30.1696C67.8024 28.3451 69.2879 26.8855 71.1394 26.8855C72.9694 26.8855 74.4764 28.3666 74.4764 30.1696C74.4764 31.9941 72.9909 33.4537 71.1394 33.4537C70.106 33.4537 69.1803 32.9815 68.5559 32.2517V34.849C69.3094 35.2568 70.1922 35.4929 71.0963 35.4929C74.0674 35.4929 76.4787 33.1103 76.4787 30.1696C76.5002 27.2075 74.0889 24.8248 71.1179 24.8248Z" fill="#88B027"/>
<path d="M47.3928 19.9739C44.4218 19.9739 42.0105 22.3565 42.0105 25.2972V35.4072H44.0773V25.2972C44.0773 23.4941 45.5628 22.0345 47.3928 22.0345C49.2227 22.0345 50.7083 23.4941 50.7083 25.2972V26.4563H45.3906V28.4955H50.7083V35.3857H52.7751V25.2757C52.7751 22.3565 50.3638 19.9739 47.3928 19.9739Z" fill="#88B027"/>
<path d="M89.6533 25.2757C89.6533 23.4727 91.139 22.013 92.9689 22.013H95.5743V19.9739H92.9689C89.9982 19.9739 87.5869 22.3565 87.5869 25.2972V35.4072H89.6533V28.7101H95.3802V26.6709H89.6533V25.2757Z" fill="#008ECF"/>
<path d="M107.309 24.8895V31.329C107.287 32.6168 106.21 33.6687 104.897 33.6687C103.584 33.6687 102.507 32.6168 102.486 31.329V24.8895H100.419V31.329C100.441 33.4111 101.905 35.1282 103.864 35.579V39.9579H105.931V35.579C107.89 35.1282 109.354 33.3896 109.375 31.329V24.8895H107.309Z" fill="#008ECF"/>
<path d="M118.977 30.9424C118.762 31.7581 118.224 32.5094 117.427 32.9601C115.856 33.8617 113.81 33.3251 112.906 31.7581C112.002 30.1912 112.54 28.195 114.112 27.2934C115.382 26.5636 116.932 26.7783 117.965 27.6798L113.315 30.3415L114.349 32.123L116.501 30.8995L120.85 28.4096C120.743 28.0876 120.592 27.7656 120.42 27.4651C118.934 24.9108 115.64 24.0522 113.057 25.5118C110.474 26.9715 109.59 30.2341 111.097 32.7885C112.583 35.3428 115.877 36.2014 118.461 34.7418C119.925 33.9047 120.85 32.4665 121.088 30.9424H118.977Z" fill="#008ECF"/>
<path d="M127.587 24.8248C126.338 24.8248 125.197 25.2542 124.271 25.9625V24.8892H122.205V35.3856H124.271V30.1481C124.271 28.3451 125.757 26.8855 127.587 26.8855H128.017V24.8463L127.587 24.8248Z" fill="#008ECF"/>
<path d="M84.3578 30.5134L79.1908 28.1307C78.9325 28.002 78.8464 27.723 78.954 27.4654C79.0401 27.2722 79.2339 27.1648 79.4061 27.1648H85.2833V25.1257H79.4061C78.4372 25.1257 77.49 25.6624 77.0595 26.6068C76.4566 27.8732 77.0164 29.3972 78.3081 29.9983L83.4751 32.3809C83.7335 32.4881 83.8411 32.7887 83.712 33.0463C83.6258 33.2395 83.432 33.3468 83.2383 33.3468H77.2101V35.386H83.2383C84.2071 35.386 85.1325 34.8493 85.5851 33.9048C86.2309 32.6384 85.6707 31.1144 84.3578 30.5134Z" fill="#88B027"/>
</svg>
