<svg width="140" height="60" viewBox="0 0 140 60" fill="none" xmlns="http://www.w3.org/2000/svg">
<path fill-rule="evenodd" clip-rule="evenodd" d="M19.9844 22.9427C20.6745 22.1475 21.0207 21.2883 21.0207 20.3681V20.3681C21.0207 20.246 21.0149 20.123 21.0008 20C20.5201 20.0242 20.009 20.1656 19.4686 20.4214C18.9271 20.681 18.4806 21.0064 18.1295 21.3978C17.4262 22.1707 17.0301 23.1161 17.0301 23.9995C17.0301 24.1216 17.0382 24.2378 17.0521 24.3482C18.1444 24.4344 19.1517 23.8881 19.9844 22.9427ZM23.6572 36.1178C24.0502 35.5738 24.3894 34.9821 24.676 34.3393C24.7941 34.0667 24.9052 33.7828 25.0105 33.4863C24.5251 33.2887 24.0888 33.0105 23.6982 32.6504C22.8362 31.8747 22.3976 30.8978 22.3847 29.7237C22.3707 28.2165 23.0759 27.0416 24.5017 26.2027C23.7052 25.1033 22.5075 24.4931 20.9133 24.3682C20.325 24.3197 19.6069 24.4428 18.756 24.7401C17.8562 25.0608 17.3255 25.2216 17.1689 25.2216C16.9594 25.2216 16.4816 25.084 15.7375 24.8128C14.9913 24.5425 14.3908 24.405 13.9329 24.405C13.0961 24.4185 12.319 24.6297 11.5998 25.0443C10.8806 25.4588 10.306 26.0235 9.87404 26.7394C9.32444 27.6306 9.05005 28.6941 9.05005 29.9272C9.05005 31.0036 9.25356 32.1155 9.65953 33.2637C10.0386 34.3268 10.5225 35.2592 11.111 36.0633C11.6596 36.8163 12.1175 37.3478 12.4835 37.6579C13.0571 38.1758 13.6317 38.4222 14.2082 38.3984C14.5873 38.3859 15.0831 38.2598 15.6985 38.0179C16.3131 37.7771 16.8876 37.6579 17.4232 37.6579C17.934 37.6579 18.4926 37.7771 19.1005 38.0179C19.7063 38.2598 20.2268 38.3791 20.6584 38.3791C21.2595 38.3655 21.821 38.1258 22.3449 37.6579C22.683 37.3728 23.1216 36.8595 23.6572 36.1178Z" fill="black"/>
<path d="M31.3091 34.3877C31.3882 36.7695 33.3306 38.2197 36.3804 38.2197C39.5269 38.2197 41.522 36.6641 41.522 34.2031C41.522 32.2695 40.4146 31.1797 37.8745 30.6348L36.3364 30.3096C34.8774 29.9756 34.2622 29.5361 34.2622 28.7539C34.2622 27.8135 35.1411 27.1895 36.4507 27.1895C37.7778 27.1895 38.7183 27.8398 38.8062 28.9121H41.2935C41.2495 26.6182 39.395 25.0977 36.4419 25.0977C33.6118 25.0977 31.5903 26.6445 31.5903 28.9824C31.5903 30.8369 32.7417 32.0234 35.0796 32.5244L36.7319 32.8848C38.2612 33.2275 38.8677 33.6846 38.8677 34.5107C38.8677 35.4424 37.9009 36.1191 36.4858 36.1191C35.0796 36.1191 33.9897 35.4336 33.8667 34.3877H31.3091ZM47.1646 30.2744C48.3071 30.2744 49.0894 31.1006 49.1421 32.3047H45.1431C45.231 31.127 46.0396 30.2744 47.1646 30.2744ZM49.1772 35.1172C48.9399 35.8379 48.2192 36.3037 47.2788 36.3037C45.9692 36.3037 45.1167 35.3809 45.1167 34.0361V33.8779H51.6118V33.0957C51.6118 30.2305 49.8804 28.376 47.1382 28.376C44.3521 28.376 42.5942 30.3271 42.5942 33.333C42.5942 36.3477 44.3345 38.2021 47.2349 38.2021C49.564 38.2021 51.2515 36.9629 51.5327 35.1172H49.1772ZM56.5776 36.2949C55.7075 36.2949 55.1274 35.8555 55.1274 35.1523C55.1274 34.4844 55.6724 34.0537 56.6304 33.9834L58.6167 33.8604V34.5459C58.6167 35.5654 57.6938 36.2949 56.5776 36.2949ZM55.7339 38.1494C56.9116 38.1494 58.0806 37.5605 58.6079 36.5586H58.6606V38H61.1392V31.5225C61.1392 29.624 59.5659 28.376 57.1489 28.376C54.6528 28.376 53.0972 29.6328 53.0005 31.4609H55.3472C55.4702 30.7666 56.0767 30.292 57.0347 30.292C58.0015 30.292 58.6167 30.8018 58.6167 31.6807V32.3047L56.2437 32.4453C53.897 32.5859 52.5786 33.5791 52.5786 35.293C52.5786 36.9893 53.9409 38.1494 55.7339 38.1494ZM62.8003 38H65.3667V32.7354C65.3667 31.4082 66.105 30.6348 67.3706 30.6348C67.7397 30.6348 68.0913 30.6963 68.3022 30.7842V28.5254C68.1265 28.4727 67.8716 28.4287 67.5728 28.4287C66.4653 28.4287 65.6655 29.0791 65.3315 30.2744H65.2788V28.5781H62.8003V38ZM77.6011 32.085C77.4868 29.9492 75.8696 28.376 73.3208 28.376C70.4995 28.376 68.6978 30.2568 68.6978 33.2803C68.6978 36.3564 70.4995 38.2021 73.3384 38.2021C75.8169 38.2021 77.478 36.7695 77.6099 34.5459H75.2192C75.061 35.5742 74.3931 36.1895 73.3647 36.1895C72.0903 36.1895 71.2993 35.1348 71.2993 33.2803C71.2993 31.4609 72.0903 30.3887 73.356 30.3887C74.4106 30.3887 75.0698 31.0918 75.2192 32.085H77.6011ZM78.9106 38H81.4771V32.6211C81.4771 31.3818 82.189 30.5293 83.4019 30.5293C84.5708 30.5293 85.1685 31.2676 85.1685 32.4805V38H87.7349V31.9355C87.7349 29.7559 86.5396 28.4023 84.4478 28.4023C83.0151 28.4023 81.9868 29.0703 81.4858 30.2568H81.4331V25.3174H78.9106V38ZM101.472 38H104.293L99.8813 25.3174H96.7612L92.3579 38H95.0825L96.0493 34.9238H100.505L101.472 38ZM98.2466 27.7432H98.3081L99.9341 32.9375H96.6206L98.2466 27.7432ZM108.521 38.1494C109.91 38.1494 111 37.4199 111.457 36.3828H111.5V38H114.032V25.3174H111.465V30.1953H111.413C110.956 29.1494 109.901 28.4287 108.539 28.4287C106.174 28.4287 104.68 30.2832 104.68 33.2715C104.68 36.2861 106.166 38.1494 108.521 38.1494ZM109.391 30.4854C110.666 30.4854 111.483 31.5752 111.483 33.2891C111.483 35.0117 110.666 36.084 109.391 36.084C108.099 36.084 107.308 35.0205 107.308 33.2891C107.308 31.5664 108.099 30.4854 109.391 30.4854ZM115.587 31.3467C115.587 32.7354 116.501 33.667 118.286 34.0713L120.026 34.458C120.87 34.6602 121.186 34.9238 121.186 35.3984C121.186 36.0137 120.597 36.4004 119.622 36.4004C118.602 36.4004 117.978 35.9434 117.855 35.1523H115.35C115.491 36.9893 117.038 38.2021 119.551 38.2021C122.039 38.2021 123.744 36.9805 123.744 35.126C123.744 33.7197 122.979 32.9727 121.089 32.5508L119.288 32.1641C118.461 31.9707 118.057 31.6543 118.057 31.1885C118.057 30.582 118.637 30.1777 119.525 30.1777C120.474 30.1777 121.081 30.6436 121.133 31.3994H123.498C123.462 29.5713 121.924 28.376 119.56 28.376C117.143 28.376 115.587 29.5537 115.587 31.3467Z" fill="#1D1D1B"/>
</svg>
