<svg width="140" height="60" viewBox="0 0 140 60" fill="none" xmlns="http://www.w3.org/2000/svg">
<path d="M28.2154 27.4099C26.777 29.8131 25.3957 32.1408 23.9878 34.4533C23.7874 34.7092 23.6587 35.0131 23.6146 35.3342C23.5705 35.6554 23.6126 35.9824 23.7366 36.2822C23.9333 36.7447 24.025 37.2445 24.0055 37.7461C23.986 38.2477 23.8556 38.7389 23.6235 39.185C23.3915 39.631 23.0636 40.0209 22.6629 40.327C22.2623 40.6331 21.7987 40.848 21.3051 40.9564C19.3112 41.4741 17.3667 40.1742 16.971 38.0544C16.6209 36.1651 18.0859 34.3362 20.1711 34.0452C20.3462 34.0188 20.525 34.0188 20.818 33.9961L23.9878 28.706C21.9938 26.7373 20.8066 24.4361 21.0692 21.5832C21.2195 19.616 22.0883 17.771 23.5121 16.3951C24.854 15.0701 26.612 14.2408 28.4941 14.0449C30.3762 13.849 32.2691 14.2983 33.8585 15.3182C37.0168 17.3322 38.4666 21.262 37.2337 24.6212L34.338 23.8391C34.7185 21.9724 34.4407 20.2909 33.1698 18.855C32.3578 17.9508 31.2416 17.3717 30.0305 17.2264C28.8232 17.0649 27.5976 17.3377 26.5752 17.9954C25.5528 18.6531 24.801 19.6522 24.4558 20.8123C23.6491 23.5254 24.8744 25.7397 28.2154 27.4099Z" fill="#C73A63"/>
<path d="M32.3402 24.5683L35.4072 29.9378C40.5671 28.3508 44.456 31.1885 45.8526 34.2266C46.678 35.9905 46.8521 37.9865 46.3442 39.8651C45.8363 41.7436 44.6789 43.3847 43.0747 44.5008C39.6767 46.8247 35.3806 46.4279 32.3669 43.4428L34.7299 41.4779C37.7056 43.3899 40.3045 43.2992 42.2338 41.0358C43.0301 40.0934 43.4596 38.8987 43.4442 37.6687C43.4289 36.4386 42.9697 35.2548 42.1501 34.3324C40.1942 32.1483 37.5838 32.0652 34.4103 34.1775C33.0975 31.8649 31.7466 29.5675 30.4909 27.2398C30.3262 26.8666 30.0674 26.5418 29.7395 26.2969C29.4115 26.052 29.0255 25.8952 28.6187 25.8417C27.8638 25.7022 27.1808 25.3077 26.6856 24.725C26.1904 24.1423 25.9134 23.4074 25.9018 22.645C25.8619 21.9079 26.0587 21.1774 26.464 20.5586C26.8692 19.9399 27.4618 19.4649 28.1564 19.2022C28.851 18.9395 29.6117 18.9026 30.3288 19.0969C31.0458 19.2912 31.6822 19.7067 32.1462 20.2833C32.5276 20.7226 32.7849 21.2544 32.8919 21.8246C32.9988 22.3948 32.9516 22.983 32.755 23.5292C32.6446 23.8541 32.4962 24.1753 32.3402 24.5683Z" fill="#4B4B4B"/>
<path d="M34.7642 39.0973H28.5502C27.9566 41.5308 26.6705 43.4919 24.452 44.7426C22.773 45.7057 20.807 46.0533 18.8964 45.7251C17.0829 45.393 15.4288 44.4803 14.1871 43.1264C12.9454 41.7726 12.1843 40.0522 12.0204 38.2282C11.8822 36.2649 12.45 34.3166 13.6227 32.73C14.7954 31.1434 16.497 30.0214 18.4245 29.5637L19.2198 32.4279C15.7076 34.2077 14.4938 36.4484 15.4755 39.2522C16.3393 41.7197 18.7975 43.0725 21.4687 42.5472C24.14 42.022 25.5669 39.7661 25.3995 36.1537C27.9833 36.1537 30.567 36.1273 33.1507 36.1537C34.1591 36.1537 34.9392 36.0668 35.7002 35.1826C36.9522 33.7278 39.2543 33.8601 40.6014 35.2317C40.9209 35.5634 41.1716 35.9544 41.339 36.3823C41.5064 36.8102 41.5872 37.2667 41.577 37.7257C41.5668 38.1846 41.4656 38.6371 41.2792 39.0572C41.0929 39.4773 40.8251 39.8569 40.491 40.1742C40.157 40.4915 39.7632 40.7404 39.3323 40.9067C38.9014 41.0729 38.4417 41.1532 37.9795 41.143C37.5174 41.1329 37.0617 41.0324 36.6387 40.8474C36.2156 40.6623 35.8333 40.3964 35.5138 40.0646C35.2476 39.755 34.9974 39.4321 34.7642 39.0973Z" fill="#4A4A4A"/>
<path d="M54.4715 26.6202H56.8574L58.2272 33.0439L59.6314 26.6202H62.0819L59.4715 35.5567H57.059L55.6473 29.0461L54.2203 35.5567H51.7774L49.2507 26.6202H51.7774L53.1815 33.0439L54.4715 26.6202Z" fill="#4B4B4B"/>
<path d="M68.6345 26.8015C69.2694 27.0863 69.8094 27.5451 70.1908 28.1241C70.5677 28.6779 70.8124 29.3099 70.9062 29.9718C70.9777 30.5597 71.0032 31.1522 70.9823 31.744H64.4297C64.4652 32.6408 64.7785 33.2706 65.3696 33.6334C65.761 33.8661 66.2112 33.9828 66.6672 33.9697C67.0352 33.9988 67.4034 33.9165 67.7233 33.7337C68.0432 33.5509 68.2999 33.2762 68.4595 32.9456H70.8606C70.752 33.5624 70.4465 34.1281 69.9892 34.5591C69.1824 35.4282 68.0536 35.8628 66.6025 35.8628C65.4486 35.8779 64.3262 35.4886 63.4328 34.7632C62.517 34.0301 62.0591 32.8373 62.0591 31.1848C62.0591 29.6355 62.4726 28.449 63.2996 27.6253C63.7222 27.2109 64.2259 26.887 64.7797 26.6738C65.3334 26.4606 65.9253 26.3626 66.5188 26.3859C67.2458 26.3736 67.967 26.5153 68.6345 26.8015ZM65.1261 28.8231C64.7733 29.2056 64.5532 29.6903 64.4982 30.2061H68.5508C68.5486 29.9405 68.4918 29.6781 68.3838 29.4351C68.2758 29.1921 68.119 28.9736 67.9229 28.7929C67.5336 28.4658 67.0361 28.2934 66.5264 28.3092C66.2699 28.2945 66.0132 28.3325 65.7722 28.4209C65.5312 28.5094 65.3113 28.6463 65.1261 28.8231Z" fill="#4B4B4B"/>
<path d="M79.6657 27.6971C80.3704 28.6433 80.7263 29.8012 80.6741 30.977C80.7222 32.2044 80.3728 33.4149 79.6771 34.4307C79.1482 35.0951 78.3998 35.5524 77.5642 35.7218C76.7286 35.8912 75.8596 35.7618 75.1108 35.3564C74.7648 35.1051 74.467 34.7941 74.2318 34.4382V35.5718H71.9106V23.4876H74.2585V27.784C74.5204 27.4037 74.8569 27.0798 75.2478 26.8318C75.7395 26.542 76.3052 26.4003 76.8765 26.4237C77.4098 26.4009 77.9409 26.5045 78.4259 26.726C78.9109 26.9474 79.3359 27.2803 79.6657 27.6971ZM77.6832 33.1384C78.0469 32.5654 78.2249 31.8954 78.1931 31.2188C78.2093 30.6826 78.1241 30.1481 77.9419 29.6431C77.8214 29.2835 77.5851 28.9732 77.2695 28.7602C76.9538 28.5471 76.5764 28.4431 76.1953 28.4641C75.8135 28.4401 75.4341 28.5398 75.1143 28.7483C74.7945 28.9569 74.5516 29.2629 74.4221 29.6204C74.2383 30.1303 74.1531 30.67 74.1709 31.2112C74.1476 31.8784 74.328 32.537 74.6885 33.1006C74.8622 33.3507 75.0984 33.5519 75.3738 33.6843C75.6493 33.8168 75.9546 33.8761 76.26 33.8563C76.5393 33.8676 76.8168 33.8076 77.066 33.6818C77.3152 33.5561 77.5277 33.369 77.6832 33.1384Z" fill="#4B4B4B"/>
<path d="M88.3378 26.6693C88.7831 26.8547 89.1688 27.1579 89.4527 27.5459C89.6858 27.8481 89.8412 28.2022 89.9055 28.5775C89.9729 29.1505 90.0008 29.7275 89.9892 30.3043V35.5567H87.5767V30.1154C87.5935 29.713 87.5084 29.3129 87.3294 28.9516C87.2115 28.7404 87.0334 28.5685 86.8174 28.4575C86.6014 28.3466 86.3572 28.3016 86.1155 28.3281C85.8485 28.3116 85.5815 28.3593 85.3371 28.4672C85.0926 28.5751 84.878 28.74 84.7114 28.9478C84.3602 29.4689 84.1917 30.0904 84.2319 30.7162V35.5605H81.8689V23.5141H84.2205V27.7764C84.5023 27.3112 84.9114 26.9351 85.4001 26.6919C85.8424 26.4883 86.3244 26.3838 86.8119 26.3859C87.3347 26.3752 87.8541 26.4717 88.3378 26.6693Z" fill="#4B4B4B"/>
<path d="M99.1598 34.4647C98.3987 35.3967 97.2457 35.8628 95.7008 35.8628C94.1559 35.8628 93.0029 35.3967 92.2419 34.4647C91.5027 33.4993 91.1025 32.32 91.1025 31.1073C91.1025 29.8946 91.5027 28.7153 92.2419 27.75C93.0029 26.8053 94.1559 26.333 95.7008 26.333C97.2457 26.333 98.3987 26.8053 99.1598 27.75C99.8995 28.7151 100.3 29.8945 100.3 31.1073C100.3 32.3202 99.8995 33.4996 99.1598 34.4647ZM97.2762 33.1724C97.6799 32.5592 97.8734 31.8329 97.8279 31.1017C97.8748 30.3715 97.6811 29.646 97.2762 29.0347C97.0797 28.8079 96.8362 28.6258 96.5624 28.501C96.2885 28.3762 95.9907 28.3116 95.6894 28.3116C95.3881 28.3116 95.0903 28.3762 94.8165 28.501C94.5426 28.6258 94.2991 28.8079 94.1026 29.0347C93.6948 29.6448 93.4996 30.3709 93.5471 31.1017C93.5002 31.8336 93.6953 32.5606 94.1026 33.1724C94.2984 33.4004 94.5416 33.5835 94.8156 33.709C95.0896 33.8346 95.3877 33.8996 95.6894 33.8996C95.9911 33.8996 96.2893 33.8346 96.5632 33.709C96.8372 33.5835 97.0804 33.4004 97.2762 33.1724Z" fill="#4B4B4B"/>
<path d="M109.027 34.4647C108.266 35.3967 107.113 35.8628 105.568 35.8628C104.023 35.8628 102.87 35.3967 102.109 34.4647C101.369 33.4996 100.969 32.3202 100.969 31.1073C100.969 29.8945 101.369 28.7151 102.109 27.75C102.87 26.8053 104.023 26.333 105.568 26.333C107.113 26.333 108.266 26.8053 109.027 27.75C109.767 28.7151 110.167 29.8945 110.167 31.1073C110.167 32.3202 109.767 33.4996 109.027 34.4647ZM107.143 33.1724C107.547 32.5592 107.741 31.8329 107.695 31.1017C107.742 30.3715 107.548 29.646 107.143 29.0347C106.947 28.8079 106.703 28.6258 106.43 28.501C106.156 28.3762 105.858 28.3116 105.557 28.3116C105.255 28.3116 104.957 28.3762 104.684 28.501C104.41 28.6258 104.166 28.8079 103.97 29.0347C103.562 29.6448 103.367 30.3709 103.414 31.1017C103.367 31.8336 103.562 32.5606 103.97 33.1724C104.166 33.4004 104.409 33.5835 104.683 33.709C104.957 33.8346 105.255 33.8996 105.557 33.8996C105.858 33.8996 106.156 33.8346 106.43 33.709C106.704 33.5835 106.948 33.4004 107.143 33.1724Z" fill="#4B4B4B"/>
<path d="M111.333 23.5141H113.646V30.0323L116.614 26.6617H119.541L116.314 29.9983L119.666 35.5642H116.801L114.62 31.744L113.646 32.7491V35.5605H111.333V23.5141Z" fill="#4B4B4B"/>
<path d="M121.915 32.7038C121.929 33.0246 122.042 33.3334 122.239 33.588C122.533 33.9004 123.074 34.0565 123.863 34.0565C124.243 34.0736 124.622 34.0038 124.971 33.8525C125.086 33.8013 125.184 33.7201 125.256 33.6174C125.328 33.5148 125.37 33.3946 125.378 33.2699C125.387 33.1452 125.36 33.0206 125.303 32.9095C125.245 32.7985 125.158 32.7051 125.051 32.6395C124.254 32.327 123.43 32.0904 122.589 31.9329C121.804 31.7896 121.064 31.4662 120.427 30.9883C120.211 30.7821 120.043 30.5316 119.935 30.2542C119.826 29.9768 119.78 29.6793 119.799 29.3823C119.798 28.9782 119.885 28.5786 120.054 28.2113C120.224 27.8439 120.472 27.5176 120.781 27.2549C121.436 26.6629 122.355 26.3669 123.54 26.3669C124.502 26.326 125.457 26.5579 126.291 27.0358C126.999 27.4817 127.406 28.2512 127.513 29.3445H125.161C125.145 29.0876 125.056 28.8402 124.906 28.6304C124.736 28.4572 124.528 28.3245 124.299 28.2421C124.069 28.1596 123.824 28.1296 123.582 28.1543C123.201 28.1224 122.819 28.2054 122.486 28.3923C122.389 28.4515 122.309 28.5335 122.252 28.6311C122.194 28.7287 122.163 28.8388 122.159 28.9516C122.152 29.0717 122.181 29.1911 122.243 29.2947C122.305 29.3982 122.396 29.4813 122.505 29.5335C123.304 29.8174 124.127 30.0336 124.963 30.1796C125.741 30.3215 126.469 30.6642 127.071 31.1734C127.297 31.3911 127.475 31.6529 127.595 31.9423C127.714 32.2316 127.771 32.5424 127.764 32.8549C127.775 33.2677 127.692 33.6776 127.52 34.0535C127.348 34.4293 127.091 34.7612 126.771 35.0239C126.106 35.5831 125.079 35.8627 123.688 35.8627C122.298 35.8627 121.252 35.5667 120.549 34.9748C120.222 34.6951 119.961 34.3466 119.786 33.9544C119.611 33.5623 119.526 33.1364 119.537 32.7076H121.923L121.915 32.7038Z" fill="#4B4B4B"/>
</svg>
