<svg width="140" height="60" viewBox="0 0 140 60" fill="none" xmlns="http://www.w3.org/2000/svg">
<path fill-rule="evenodd" clip-rule="evenodd" d="M103.177 25.9072C104.878 25.9072 106.157 26.3052 107.015 27.0937C107.873 27.8822 108.302 29.1454 108.31 30.8755V37.6735V39.5644C108.31 39.6639 108.222 39.7481 108.119 39.7481H106.355C106.252 39.7481 106.165 39.6639 106.165 39.5644V37.6735V30.9521C106.165 29.842 105.902 29.0152 105.378 28.4717C104.854 27.9282 104.035 27.6526 102.923 27.6526H102.891C102.844 27.6526 102.796 27.6545 102.748 27.6564C102.701 27.6583 102.653 27.6602 102.605 27.6602C101.295 27.7368 100.325 28.2727 99.6898 28.9846C98.9986 29.7502 98.657 31.021 98.657 32.7894V39.5567C98.657 39.6562 98.5696 39.7405 98.4664 39.7405H96.6947C96.5915 39.7405 96.5041 39.6562 96.5041 39.5567V29.1454L96.5676 27.0937L96.6868 23.2354L94.3273 21.7962C93.8109 22.2173 93.1197 22.3704 92.4683 22.2249C91.3163 21.9646 90.5934 20.8546 90.8635 19.7446C91.1336 18.6345 92.2856 17.9379 93.4375 18.1982C94.5895 18.4585 95.3124 19.5685 95.0423 20.6785L96.7345 21.7197L96.9013 16.4451C96.4167 16.269 96.0354 15.8939 95.8447 15.4269C95.4713 14.5083 95.948 13.4825 96.9013 13.1227C97.8546 12.7628 98.9271 13.2222 99.2926 14.1408C99.666 15.0595 99.1893 16.0929 98.236 16.4451L98.3313 18.9943L99.8884 18.068C99.7454 17.4939 99.8725 16.8891 100.238 16.4221C100.913 15.5571 102.192 15.381 103.09 16.0317C103.988 16.6824 104.17 17.9149 103.495 18.78C102.82 19.645 101.541 19.8211 100.643 19.1704L98.379 20.5024L98.4981 23.6871L100.119 22.7225C100.047 22.2862 100.151 21.8421 100.413 21.4823C100.969 20.7168 102.065 20.5254 102.86 21.0613C103.654 21.5972 103.853 22.6536 103.297 23.4192C102.74 24.1847 101.644 24.3761 100.85 23.8402L98.5537 25.1952L98.6491 27.8363C99.0781 27.0555 100.619 25.9072 103.177 25.9072ZM33.1371 27.8812C34.1301 26.5262 35.6078 25.9368 37.5621 25.9368C39.4132 25.9368 40.8591 26.5415 41.8839 27.7664C42.9087 28.9836 43.4251 30.7061 43.4251 32.9415C43.4251 35.1768 42.9087 36.9146 41.876 38.1471C40.8432 39.3796 39.4052 39.9997 37.5701 39.9997C36.7041 40.0074 35.8461 39.8466 35.0517 39.5098C34.2811 39.1806 33.6217 38.66 33.1371 38.0017V39.571C33.1371 39.6705 33.0497 39.7548 32.9464 39.7548H31.1907C31.0874 39.7548 31 39.6705 31 39.571V19.001C31 18.9015 31.0874 18.8173 31.1907 18.8173H32.9464C33.0497 18.8173 33.1371 18.9015 33.1371 19.001V27.8812ZM37.5065 37.9098C38.7935 37.9098 39.7548 37.4811 40.3904 36.6237C41.0259 35.7663 41.3437 34.5338 41.3437 32.9261C41.3437 31.2726 41.0259 30.0477 40.3904 29.2362C39.7548 28.4248 38.7776 28.019 37.4509 28.019C36.0209 28.019 34.9881 28.3942 34.3526 29.1444C33.717 29.8946 33.3992 31.1577 33.3992 32.9415C33.3992 34.7252 33.725 35.996 34.3764 36.7615C35.0278 37.527 36.0686 37.9098 37.5065 37.9098ZM71.4379 27.8427C71.8669 27.0619 73.4082 25.9136 75.9663 25.9136C77.6664 25.9059 78.9455 26.304 79.7955 27.0925C80.6535 27.881 81.0825 29.1442 81.0825 30.8819V39.5861C81.0825 39.6856 80.9951 39.7698 80.8918 39.7698H79.1361C79.0328 39.7698 78.9454 39.6856 78.9454 39.5861V30.9738C78.9454 29.8638 78.6833 29.037 78.1589 28.4935C77.6426 27.9499 76.8163 27.6743 75.7041 27.6743C74.2264 27.6743 73.146 28.2408 72.4628 29.0064C71.7716 29.7719 71.43 31.0427 71.43 32.8111V39.5785C71.43 39.678 71.3426 39.7622 71.2393 39.7622H69.4836C69.3803 39.7622 69.2929 39.678 69.2929 39.5785V26.3499C69.2929 26.2504 69.3803 26.1662 69.4836 26.1662H71.2473C71.3505 26.1662 71.4379 26.2504 71.4379 26.3499V27.8427ZM93.7251 26.5435C93.2644 26.3598 92.7797 26.2144 92.2951 26.1225C91.6278 25.9847 90.9446 25.9158 90.2614 25.9082C88.1561 25.9082 86.5434 26.5282 85.3993 27.7684C84.2633 29.0086 83.6913 30.7693 83.6913 33.043C83.6913 35.2554 84.2474 36.9702 85.3676 38.1797C86.4877 39.3893 88.0687 39.9941 90.1104 39.9941C91.4927 39.9941 92.6447 39.7721 93.5662 39.3357C93.6298 39.3051 93.6695 39.2438 93.6695 39.1673V37.7281C93.6695 37.6286 93.5821 37.5443 93.4789 37.5443C93.455 37.5443 93.4312 37.552 93.4073 37.5597C92.3349 37.9654 91.1988 38.1797 90.0468 38.1951C88.6725 38.1951 87.6397 37.751 86.9406 36.8554C86.2415 35.9597 85.8919 34.6812 85.8919 33.0124C85.8919 29.4909 87.3219 27.7301 90.1898 27.7301C90.6903 27.7378 91.1829 27.799 91.6675 27.9139C92.1283 28.0134 92.5891 28.1359 93.034 28.2966C93.1293 28.3349 93.2405 28.289 93.2802 28.1895L93.8125 26.7732C93.8681 26.6813 93.8205 26.5818 93.7251 26.5435ZM61.617 25.5706C63.3013 25.5706 64.5486 25.9304 65.3589 26.6501C66.1692 27.3697 66.5744 28.6175 66.5585 30.2022V39.557C66.5585 39.6566 66.4711 39.7408 66.3678 39.7408H64.6598C64.5565 39.7408 64.4691 39.6566 64.4691 39.557V38.5542C63.913 39.0671 63.2457 39.4652 62.5227 39.7101C61.9825 39.8939 61.4105 39.9857 60.8385 39.9857C59.7501 39.9857 58.6935 39.6642 57.8037 39.0518C56.6279 38.2403 55.905 37.1839 55.762 35.7676C55.611 34.2825 56.1274 32.805 57.184 31.7179C57.8593 31.0366 58.6776 30.5084 59.5912 30.1792C60.5922 29.8041 61.5853 29.7505 62.4194 29.7428L64.3976 29.7275C64.3658 29.0921 64.0878 28.3725 63.7621 28.028C63.2854 27.5151 62.5227 27.2625 61.474 27.2625C60.3459 27.2625 59.0828 27.584 57.6687 28.2194C57.6687 28.2271 57.6607 28.2271 57.6607 28.2271C57.5654 28.2653 57.4542 28.2194 57.4144 28.1275L56.898 26.8874C56.8583 26.8032 56.898 26.7036 56.9854 26.6577C57.6687 26.3209 58.3837 26.0606 59.1225 25.8769C59.9408 25.6702 60.7749 25.5706 61.617 25.5706ZM61.7759 38.1408C63.6111 37.5131 64.5247 35.5762 64.5327 33.8078L64.5406 31.5801L62.4194 31.5725C61.6647 31.5801 60.9259 31.6337 60.2188 31.894C59.5674 32.1237 58.9795 32.4988 58.4949 32.9811C57.184 34.3208 57.2238 36.6097 58.8285 37.7197C59.6786 38.3092 60.7829 38.47 61.7759 38.1408ZM54.0171 26.1604C53.5087 26.0915 53.0002 26.0609 52.4918 26.0609C49.9926 26.1447 48.2256 27.6853 48.2177 27.8577V26.4666C48.2177 26.3671 48.1303 26.2829 48.027 26.2829H46.2713C46.168 26.2829 46.0806 26.3671 46.0806 26.4666V39.6952C46.0806 39.7947 46.168 39.8789 46.2713 39.8789H48.027C48.1303 39.8789 48.2177 39.7947 48.2177 39.6952V32.5833C48.2177 31.2513 48.6228 30.1412 49.4332 29.2456C50.2435 28.3499 51.2207 27.9059 52.3647 27.9059C52.8175 27.9135 53.2704 27.9594 53.7152 28.0513C53.8185 28.0743 53.9218 28.0054 53.9377 27.9059V27.8982L54.176 26.3595C54.1999 26.2676 54.1284 26.1757 54.0171 26.1604Z" fill="#333E48"/>
<path fill-rule="evenodd" clip-rule="evenodd" d="M96.4462 14.7878C96.4462 14.1906 96.9467 13.7084 97.5664 13.7084C98.186 13.7084 98.6945 14.1906 98.6865 14.7878C98.6865 15.3849 98.186 15.8672 97.5664 15.8672C96.9467 15.8672 96.4462 15.3849 96.4462 14.7878ZM100.787 22.4789C100.787 21.9354 101.24 21.499 101.804 21.499C102.368 21.499 102.821 21.9354 102.821 22.4789C102.821 23.0225 102.368 23.4588 101.804 23.4588C101.24 23.4588 100.787 23.0225 100.787 22.4789ZM102.43 18.6532C103.026 18.3776 103.272 17.681 102.986 17.1068C102.7 16.5327 101.977 16.2954 101.381 16.571C100.785 16.8465 100.539 17.5432 100.825 18.1097C101.111 18.6915 101.834 18.9288 102.43 18.6532ZM91.6643 20.2228C91.6643 19.5338 92.2443 18.975 92.9593 18.975C93.6743 18.975 94.2463 19.5338 94.2542 20.2228C94.2542 20.9118 93.6743 21.4706 92.9593 21.4706C92.2443 21.4706 91.6643 20.9118 91.6643 20.2228Z" fill="#009BDE"/>
</svg>
