<svg width="140" height="60" viewBox="0 0 140 60" fill="none" xmlns="http://www.w3.org/2000/svg">
<path fill-rule="evenodd" clip-rule="evenodd" d="M30.3121 31.4189L30.3093 31.4213C30.2957 31.4323 30.2817 31.4427 30.2671 31.4525C30.2625 31.4557 30.2578 31.4591 30.2531 31.4621C30.2434 31.4684 30.2334 31.4743 30.2233 31.4801L30.2196 31.4823C30.2117 31.4869 30.2038 31.4915 30.1957 31.4958L30.1941 31.4965C30.1006 31.545 29.9946 31.5728 29.8817 31.5728H23.8738C23.922 31.7703 23.9743 31.9945 24.0314 32.2387C24.3607 33.6485 25.2354 37.3937 26.1645 37.3937L26.1828 37.3942L26.1928 37.3928L26.2106 37.3929C26.9364 37.3928 27.3069 36.3523 28.1187 34.0729L28.1188 34.0725L28.1286 34.0448C28.2591 33.6787 28.4063 33.2657 28.5655 32.8285L28.6062 32.717L28.6069 32.7173C28.6484 32.6083 28.7542 32.5307 28.8786 32.5307C29.0392 32.5307 29.1694 32.6597 29.1694 32.8189C29.1694 32.8478 29.1649 32.8756 29.157 32.9019L29.1571 32.902L29.1232 33.014C29.0386 33.2853 28.9487 33.6546 28.8447 34.0822H28.8446V34.0823V34.0824V34.0825L28.8445 34.0828L28.8444 34.0831C28.3605 36.0716 27.6295 39.0756 25.7539 39.0756L25.7403 39.0754C24.5285 39.066 23.8033 37.145 23.4936 36.3246V36.3245C22.9144 34.7905 22.4762 33.156 22.0536 31.5728H16.5234L15.3753 35.2164L15.3585 35.2033C15.2535 35.367 15.0694 35.4719 14.8661 35.4719C14.5456 35.4719 14.2836 35.2134 14.2821 34.8955L14.2829 34.8758L14.3524 34.4637C14.5109 33.5275 14.701 32.5555 14.9176 31.5728H12.5822L12.5735 31.5641C12.1497 31.5036 11.824 31.1328 11.824 30.7004C11.824 30.2765 12.1266 29.9157 12.5434 29.8424C12.5819 29.8376 12.659 29.831 12.8168 29.831C12.8504 29.831 12.8883 29.8312 12.9303 29.832C13.6706 29.8446 14.4557 29.8563 15.3172 29.8672C16.5362 24.9558 17.9481 22.4626 19.5142 22.4556C21.1948 22.4556 22.4413 26.2499 23.4392 29.9615L23.4432 29.9764C25.4934 30.0171 27.6789 30.0764 29.8031 30.2272L29.8922 30.2354C29.9263 30.236 29.9598 30.2393 29.9925 30.2446L30.0049 30.2459C30.0074 30.2462 30.0098 30.2469 30.0122 30.2475L30.0158 30.2482L30.0213 30.2494C30.3306 30.3108 30.5599 30.5799 30.5599 30.9029C30.5599 31.1097 30.4634 31.296 30.3121 31.4189ZM21.192 18.6137C14.1871 18.6137 8.50854 24.2445 8.50854 31.1906C8.50854 38.1365 14.1871 43.7675 21.192 43.7675C28.197 43.7675 33.8755 38.1365 33.8755 31.1906C33.8755 24.2445 28.197 18.6137 21.192 18.6137ZM19.6513 24.3178C19.5811 24.226 19.5016 24.1778 19.4133 24.1778C19.3403 24.1778 19.2738 24.2103 19.2308 24.2375C18.559 24.7622 17.6396 26.9843 16.8862 29.9125L17.5531 29.9201C18.8703 29.9349 20.2307 29.9502 21.5751 29.9708C21.2208 28.6295 20.8857 27.4799 20.5787 26.5519C20.13 25.1956 19.8266 24.5883 19.6513 24.3178ZM41.886 31.8969L43.7837 27.2075L45.7194 31.8969H41.886ZM39.8744 36.8312L40.8801 34.364H46.7252L47.7311 36.8312H50.6346L45.0932 23.9494H42.5122L36.9518 36.8312H39.8744ZM67.0844 31.8801V36.831H64.4431V32.106C64.4431 30.6754 63.7406 29.9035 62.5054 29.9035C61.9544 29.9035 61.3462 30.1483 60.7957 30.9013C60.8335 31.2212 60.8712 31.5413 60.8712 31.8801V36.831H58.2307V32.106C58.2307 30.6754 57.5276 29.9035 56.2737 29.9035C55.7607 29.9035 55.1908 30.2047 54.6588 30.9201V36.831H52.0179V27.814H54.6588V28.36C55.2288 27.8329 55.8368 27.5317 56.9006 27.5317C58.0596 27.5317 59.0856 27.9835 59.8075 28.8117C60.7763 27.927 61.6885 27.5317 63.1135 27.5317C65.3364 27.5317 67.0844 29.2448 67.0844 31.8801ZM73.7224 29.8128C75.0924 29.8128 76.0822 30.9811 76.0822 32.319C76.0822 33.6381 75.0924 34.7876 73.7224 34.7876C72.9421 34.7876 72.1622 34.5238 71.572 33.7512V30.868C72.1622 30.0766 72.9421 29.8128 73.7224 29.8128ZM74.1603 37.0112C76.672 37.0112 78.6894 34.9384 78.6894 32.319C78.6894 29.662 76.672 27.608 74.1603 27.608C73.1326 27.608 72.2762 27.8718 71.572 28.3241V27.7964H68.927V41.1758H71.572V36.2952C72.2762 36.7474 73.1326 37.0112 74.1603 37.0112ZM80.1496 36.8312H82.7632V23.4921H80.1496V36.8312ZM88.0555 36.8313H85.4319V27.8285H88.0555V36.8313ZM86.7344 23.111C85.8475 23.111 85.1491 23.7689 85.1491 24.6522C85.1491 25.5168 85.8475 26.1558 86.7344 26.1558C87.6024 26.1558 88.3011 25.5168 88.3011 24.6522C88.3011 23.7689 87.6024 23.111 86.7344 23.111ZM97.6773 36.7223C96.579 37.0606 96.0861 37.1358 95.2338 37.1358C93.0363 37.1358 91.5969 35.5944 91.5969 33.2635V30.0489H89.6828V27.8496H91.5969V24.6351H94.2104V27.8496H97.4889V30.0489H94.2104V33.2447C94.2104 34.2597 94.836 34.7297 95.8026 34.7297C96.2946 34.7297 96.8259 34.6169 97.3371 34.4853L97.6773 36.7223ZM105.571 36.8538H108.208V27.8369H105.571V33.6348C104.963 34.369 104.242 34.7643 103.578 34.7643C102.344 34.7643 101.623 33.9924 101.623 32.5618V27.8369H98.984V32.8065C98.984 35.4232 100.578 37.1362 102.97 37.1362C103.995 37.1362 104.83 36.7974 105.571 36.2138V36.8538ZM116.792 33.7999V30.9167C116.204 30.1441 115.425 29.8803 114.646 29.8803C113.26 29.8803 112.291 31.0298 112.291 32.3489C112.291 33.6868 113.26 34.8552 114.646 34.8552C115.425 34.8552 116.204 34.5913 116.792 33.7999ZM119.432 36.8715H116.792V36.3438C116.089 36.7961 115.235 37.0599 114.209 37.0599C111.702 37.0599 109.67 35.0059 109.67 32.3489C109.67 29.7295 111.702 27.6566 114.209 27.6566C115.235 27.6566 116.089 27.9205 116.792 28.3728V23.4921H119.432V36.8715ZM127.567 31.4564H123.439C123.686 30.4375 124.39 29.7016 125.665 29.7016C126.73 29.7016 127.414 30.3243 127.567 31.4564ZM123.42 33.0036H130.134C130.173 32.7394 130.192 32.5319 130.192 32.1545C130.192 29.362 128.252 27.5317 125.645 27.5317C122.773 27.5317 120.814 29.5507 120.814 32.3433C120.814 35.0415 122.792 37.1359 125.722 37.1359C127.872 37.1359 129.583 35.9471 130.078 34.2112H127.32C127.034 34.6641 126.521 34.8905 125.779 34.8905C124.333 34.8905 123.629 34.0603 123.42 33.0036Z" fill="#007FD2"/>
</svg>
