<svg width="140" height="60" viewBox="0 0 140 60" fill="none" xmlns="http://www.w3.org/2000/svg">
<path d="M47.4665 33.4352H42.0403L40.76 37.3688H39.0935L43.5442 23.6525H46.1862L50.6572 37.3688H48.7672L47.4665 33.4352ZM44.7433 25.0736L42.5484 31.8493H46.9584L44.7433 25.0736Z" fill="black"/>
<path d="M57.3223 37.5538C56.6313 37.5744 55.9606 37.3891 55.3713 37.0184C54.8225 36.6476 54.3551 36.1328 54.0503 35.5355V40.746H52.3838V27.4211H53.8674L54.0096 29.3776C54.3145 28.7598 54.7616 28.2243 55.3306 27.8124C55.9403 27.4005 56.6719 27.1946 57.3832 27.2357C57.9523 27.2357 58.501 27.3387 59.0294 27.5447C59.5578 27.7506 60.0252 28.0801 60.4113 28.5126C60.8381 28.9863 61.143 29.5218 61.3665 30.119C61.6104 30.8399 61.7323 31.6225 61.712 32.3845C61.7323 33.1671 61.6104 33.9497 61.3462 34.6705C61.143 35.2678 60.7975 35.8238 60.391 36.2769C60.0049 36.6888 59.5171 37.0184 58.9887 37.2243C58.4603 37.4509 57.8913 37.5538 57.3223 37.5538ZM57.0784 36.0504C57.871 36.071 58.6636 35.7415 59.192 35.1442C59.7204 34.5264 60.0049 33.6202 60.0049 32.3845C60.0049 31.19 59.7407 30.2632 59.192 29.6454C58.6636 29.0275 57.8913 28.6774 57.0784 28.7186C56.6719 28.7186 56.2655 28.801 55.8793 28.9451C55.5135 29.0893 55.1883 29.3364 54.9242 29.6248C54.6396 29.9543 54.4161 30.3456 54.2738 30.7781C53.9487 31.8284 53.9487 32.9611 54.2738 34.0115C54.4161 34.444 54.6193 34.8353 54.9242 35.1648C55.1883 35.4737 55.5135 35.7003 55.8793 35.8444C56.2451 35.9886 56.6516 36.071 57.0784 36.0504Z" fill="black"/>
<path d="M68.7031 37.5538C68.0121 37.5744 67.3415 37.3891 66.7521 37.0184C66.2034 36.6476 65.736 36.1328 65.4311 35.5355V40.746H63.7646V27.4211H65.2482L65.3905 29.3776C65.6953 28.7598 66.1424 28.2243 66.7115 27.8124C67.3212 27.4005 68.0528 27.1946 68.7641 27.2357C69.3331 27.2357 69.8818 27.3387 70.4102 27.5447C70.9386 27.7506 71.406 28.0801 71.7922 28.5126C72.219 28.9863 72.5238 29.5218 72.7474 30.119C72.9912 30.8399 73.1132 31.6225 73.0928 32.3845C73.1132 33.1671 72.9912 33.9497 72.727 34.6705C72.5238 35.2678 72.1783 35.8238 71.7719 36.2769C71.3857 36.6888 70.898 37.0184 70.3696 37.2243C69.8412 37.4509 69.2721 37.5538 68.7031 37.5538ZM68.4592 36.0504C69.2518 36.071 70.0444 35.7415 70.5728 35.1442C71.1012 34.5264 71.3857 33.6202 71.3857 32.3845C71.3857 31.19 71.1215 30.2632 70.5728 29.6454C70.0444 29.0275 69.2721 28.6774 68.4592 28.7186C68.0528 28.7186 67.6463 28.801 67.2602 28.9451C66.8944 29.0893 66.5692 29.3364 66.305 29.6248C66.0205 29.9543 65.7969 30.3456 65.6547 30.7781C65.3295 31.8284 65.3295 32.9611 65.6547 34.0115C65.7969 34.444 66.0002 34.8353 66.305 35.1648C66.5692 35.4737 66.8944 35.7003 67.2602 35.8444C67.6463 35.9886 68.0528 36.071 68.4592 36.0504Z" fill="black"/>
<path d="M81.5479 35.2467L77.4427 26.1231V37.3474H75.7559V23.6311H78.2556L82.4624 33.2696L86.8724 23.6517H89.1689V37.368H87.3805V26.3291L83.194 35.2879L81.5479 35.2467Z" fill="black"/>
<path d="M99.9809 36.5244C99.8184 36.648 99.6355 36.7509 99.4525 36.8539C99.2087 36.9775 98.9648 37.1011 98.7006 37.1834C98.3754 37.307 98.0503 37.3894 97.7048 37.4512C97.2983 37.5335 96.8715 37.5541 96.4651 37.5541C94.8189 37.5541 93.5589 37.1011 92.7054 36.1949C91.8518 35.2887 91.425 34.0118 91.425 32.3848C91.4047 31.6434 91.5266 30.9226 91.7705 30.2223C91.9737 29.6251 92.3192 29.069 92.746 28.5953C93.1728 28.1628 93.6605 27.8127 94.2296 27.5862C94.8189 27.339 95.449 27.2155 96.0993 27.2361C96.7496 27.2361 97.3796 27.3596 97.969 27.6068C98.5177 27.8333 98.9851 28.204 99.3306 28.6777C99.7167 29.1926 99.9606 29.8104 100.062 30.4283C100.204 31.2315 100.184 32.0553 100.062 32.8585H93.1322C93.1931 33.9294 93.5183 34.7326 94.0873 35.2681C94.6767 35.8036 95.4896 36.0713 96.5464 36.0713C97.1561 36.0919 97.7454 35.9683 98.3145 35.7418C98.7412 35.5564 99.1477 35.3299 99.5338 35.0622L99.9809 36.5244ZM96.0586 28.7189C95.3677 28.6983 94.7173 28.9454 94.1889 29.3985C93.6809 29.8516 93.3354 30.5313 93.2134 31.4374H98.4974C98.538 31.0255 98.4771 30.6342 98.3551 30.2429C98.2535 29.934 98.0909 29.6457 97.8674 29.3985C97.6438 29.172 97.3796 29.0072 97.0748 28.9043C96.7496 28.7601 96.4041 28.7189 96.0586 28.7189Z" fill="black"/>
<path d="M106.383 37.4297C106.017 37.5121 105.651 37.5533 105.265 37.5533C104.838 37.5739 104.432 37.4915 104.046 37.3474C103.721 37.2238 103.436 37.0384 103.212 36.7913C103.009 36.5647 102.847 36.2764 102.745 35.9881C102.643 35.6792 102.603 35.3702 102.603 35.0613V28.8622H101.424V27.4206H102.603V25.3199H104.29V27.4H107.135V28.8416H104.29V34.8348C104.269 35.1643 104.371 35.5144 104.594 35.7615C104.859 35.9675 105.184 36.0705 105.509 36.0499C105.773 36.0499 106.017 36.0087 106.281 35.9469C106.525 35.8851 106.769 35.7821 106.993 35.6586L107.277 37.1002C106.993 37.2444 106.688 37.3679 106.383 37.4297Z" fill="black"/>
<path d="M112.154 29.6459C111.585 29.9548 111.138 30.4285 110.874 31.0464V37.369H109.207V27.4216H110.691L110.833 29.5841H110.874C111.158 28.9869 111.565 28.4514 112.073 28.0395C112.642 27.5864 113.333 27.2981 114.064 27.2157V29.0898C113.414 29.1516 112.764 29.337 112.154 29.6459Z" fill="black"/>
<path d="M116.869 25.9595C116.565 25.9801 116.28 25.8565 116.057 25.6505C115.853 25.4446 115.731 25.1563 115.752 24.8679C115.752 24.5796 115.853 24.2913 116.057 24.0853C116.26 23.8588 116.565 23.7352 116.869 23.7558C117.174 23.7352 117.459 23.8588 117.642 24.0853C117.825 24.2913 117.926 24.5796 117.926 24.8679C117.926 25.1563 117.825 25.424 117.642 25.6505C117.439 25.8565 117.154 25.9801 116.869 25.9595ZM117.682 27.4217V37.3691H116.016V27.4217H117.682Z" fill="black"/>
<path d="M124.592 37.5537C123.921 37.5537 123.25 37.4507 122.6 37.2036C122.011 36.977 121.482 36.6475 121.035 36.1944C120.588 35.7413 120.243 35.1853 120.019 34.588C119.531 33.1876 119.531 31.6429 120.019 30.2425C120.243 29.6246 120.588 29.0686 121.056 28.5949C121.503 28.1418 122.031 27.7917 122.62 27.5651C123.25 27.318 123.901 27.1944 124.571 27.215C125.12 27.215 125.689 27.2768 126.218 27.4004C126.685 27.5034 127.112 27.7093 127.498 27.977L127.092 29.4393C126.746 29.2539 126.38 29.0892 126.014 28.945C125.567 28.7802 125.08 28.6979 124.592 28.7185C123.616 28.7185 122.824 29.0274 122.234 29.6452C121.645 30.2631 121.36 31.1899 121.36 32.4255C121.36 33.5995 121.645 34.485 122.234 35.1235C122.824 35.7619 123.596 36.0709 124.571 36.0709C125.019 36.0709 125.445 36.0091 125.872 35.8855C126.258 35.7619 126.644 35.5972 126.99 35.3912L127.396 36.7711C127.031 37.0388 126.624 37.2242 126.177 37.3683C125.689 37.4919 125.141 37.5743 124.592 37.5537Z" fill="black"/>
<path d="M135.16 35.7214C135.018 35.9479 134.835 36.1745 134.652 36.3804C134.449 36.6069 134.205 36.8129 133.961 36.9777C133.677 37.163 133.352 37.3072 133.026 37.3896C132.64 37.4925 132.254 37.5543 131.848 37.5543C130.974 37.5543 130.263 37.3072 129.714 36.7923C129.165 36.2774 128.901 35.5566 128.901 34.6092C128.901 32.4468 130.486 31.3758 133.636 31.3758H135.079V30.6344C135.079 29.9342 134.896 29.4605 134.53 29.1516C134.165 28.8632 133.575 28.7191 132.742 28.7191C132.153 28.7191 131.584 28.8015 131.035 28.9662C130.588 29.1104 130.141 29.2957 129.734 29.5429L129.328 28.1424C129.775 27.8747 130.242 27.6687 130.75 27.5246C131.421 27.3186 132.132 27.2156 132.844 27.2362C134.104 27.2362 135.059 27.504 135.729 28.0189C136.4 28.5337 136.725 29.3575 136.725 30.4285V35.7626C136.725 35.8861 136.725 36.0097 136.725 36.1539C136.725 36.298 136.746 36.4422 136.746 36.6069C136.746 36.7717 136.766 36.8953 136.766 37.0394C136.766 37.1836 136.786 37.2866 136.806 37.369H135.282C135.262 37.1836 135.221 36.9365 135.201 36.6069C135.181 36.2774 135.16 35.9891 135.16 35.7626V35.7214ZM132.214 36.0509C132.539 36.0509 132.864 36.0097 133.189 35.9067C133.474 35.8037 133.738 35.6802 133.982 35.4948C134.205 35.3301 134.408 35.1653 134.612 34.9594C134.774 34.774 134.937 34.5886 135.079 34.3827V32.7145H133.799C132.62 32.7145 131.787 32.8793 131.299 33.1882C130.832 33.4765 130.567 33.9914 130.588 34.5269C130.567 34.9388 130.71 35.3301 130.994 35.6184C131.218 35.9273 131.644 36.0509 132.214 36.0509Z" fill="black"/>
<path d="M16.3318 17C8.97492 17 3 23.0343 3 30.5103H11.0682L16.3318 21.7162L21.5954 30.5103H29.6636C29.6433 23.0549 23.6887 17 16.3318 17Z" fill="#FFCC00"/>
<path d="M3 30.5099C3 33.6198 4.05679 36.6266 5.98746 39.0157L11.0682 30.5099H3Z" fill="#3BA8FF"/>
<path d="M26.6562 39.0157C28.5868 36.6061 29.6436 33.5992 29.6436 30.5099H21.5754L26.6562 39.0157Z" fill="#3BA8FF"/>
<path d="M16.3313 21.717L11.0676 30.511H21.5746L16.3313 21.717Z" fill="#FF0000"/>
<path d="M11.0673 30.5099L5.98657 39.0157C8.50661 42.1667 12.307 43.9997 16.3309 43.9997C20.3345 43.9997 24.1349 42.1667 26.6753 39.0157L21.5945 30.5099H11.0673Z" fill="#4643B9"/>
</svg>
