<svg width="60" height="60" viewBox="0 0 60 60" fill="none" xmlns="http://www.w3.org/2000/svg">
<path d="M31.255 17.1565L37.5877 20.8113C37.8154 20.9396 37.8237 21.2955 37.5877 21.4238L30.0629 25.7699C29.8353 25.9023 29.5662 25.894 29.3551 25.7699L21.8303 21.4238C21.5985 21.2997 21.5944 20.9354 21.8303 20.8113L28.1589 17.1565V10L12 19.3295V37.9884V37.9015V37.9884L18.1962 34.4123V27.1027C18.1921 26.8419 18.4983 26.6556 18.726 26.7964L26.2508 31.1424C26.4785 31.2748 26.6068 31.5108 26.6068 31.755V40.4429C26.6109 40.7036 26.3046 40.8899 26.077 40.7492L19.7442 37.0944L13.548 40.6705L29.707 50L45.8659 40.6705L39.6697 37.0944L33.3369 40.7492C33.1134 40.8858 32.7988 40.7078 32.8071 40.4429V31.755C32.8071 31.4942 32.952 31.2624 33.1631 31.1424L40.6879 26.7964C40.9114 26.6598 41.226 26.8336 41.2177 27.1027V34.4123L47.4139 37.9884V19.3295L31.255 10V17.1565Z" fill="black"/>
</svg>
