<svg width="40" height="40" viewBox="0 0 40 40" fill="none" xmlns="http://www.w3.org/2000/svg">
<path d="M13.875 13.667L12.25 10.125L8.70799 8.50001L12.25 6.87501L13.875 3.33301L15.542 6.87501L19.042 8.50001L15.542 10.125L13.875 13.667ZM25 18.708L23.625 15.708L20.625 14.333L23.625 12.958L25 9.95801L26.375 12.958L29.375 14.333L26.375 15.708L25 18.708ZM6.04199 22.042L4.62499 19.042L1.66699 17.667L4.62499 16.292L6.04199 13.292L7.41699 16.292L10.375 17.667L7.41699 19.042L6.04199 22.042ZM7.12499 34.167L4.99999 32.042L17.5 19.542L24.167 26.25L36.375 12.542L38.333 14.458L24.167 30.417L17.5 23.792L7.12499 34.167Z" fill="#6852BF"/>
</svg>
