<svg width="40" height="40" viewBox="0 0 40 40" fill="none" xmlns="http://www.w3.org/2000/svg">
<path d="M8.333 15H16.667V11.667H8.333V15ZM8.333 21.667H16.667V18.333H8.333V21.667ZM8.333 28.333H16.667V25H8.333V28.333ZM24.25 25L32.5 16.75L30.125 14.375L24.25 20.292L21.875 17.917L19.542 20.292L24.25 25ZM5.875 35C5.125 35 4.47933 34.7223 3.938 34.167C3.396 33.611 3.125 32.958 3.125 32.208V7.792C3.125 7.042 3.396 6.389 3.938 5.833C4.47933 5.27767 5.125 5 5.875 5H34.125C34.875 5 35.5207 5.27767 36.062 5.833C36.604 6.389 36.875 7.042 36.875 7.792V32.208C36.875 32.958 36.604 33.611 36.062 34.167C35.5207 34.7223 34.875 35 34.125 35H5.875ZM5.875 32.208H34.125V7.792H5.875V32.208ZM5.875 32.208V7.792V32.208Z" fill="#417DB5"/>
</svg>
