<svg width="48" height="48" viewBox="0 0 48 48" fill="none" xmlns="http://www.w3.org/2000/svg">
<g clip-path="url(#clip0_226_828)">
<path d="M22.2001 34.2999H25.2001V32.0499H27.6001C28.1334 32.0499 28.5584 31.85 28.8751 31.45C29.1918 31.05 29.3501 30.6 29.3501 30.1V24.35C29.3501 23.8166 29.1918 23.3583 28.8751 22.975C28.5584 22.5916 28.1334 22.4 27.6001 22.4H20.8501V18.95H29.3501V15.95H25.2001V13.7H22.2001V15.95H19.8001C19.2668 15.95 18.8084 16.15 18.4251 16.55C18.0418 16.95 17.8501 17.4166 17.8501 17.95V23.65C17.8501 24.1833 18.0418 24.6083 18.4251 24.925C18.8084 25.2416 19.2668 25.4 19.8001 25.4H26.3501V29.05H17.8501V32.0499H22.2001V34.2999Z" fill="#5BAB47"/>
<path d="M29.9726 10H8C6.89543 10 6 10.8954 6 12V36C6 37.1046 6.89543 38 8 38H41V23.7719" stroke="#5BAB47" stroke-width="3"/>
<path d="M39.417 20.708L38.958 18.041C38.5413 17.9023 38.1247 17.722 37.708 17.5C37.2913 17.2773 36.9163 17.0133 36.583 16.708L34.25 17.291L33 15.166L34.958 13.416C34.9027 13.1107 34.875 12.7567 34.875 12.354C34.875 11.9513 34.9027 11.597 34.958 11.291L33 9.5L34.25 7.416L36.583 8C36.9163 7.694 37.2913 7.43 37.708 7.208C38.1247 6.986 38.5413 6.80533 38.958 6.666L39.417 4H42.042L42.458 6.666C42.9027 6.80533 43.3333 6.986 43.75 7.208C44.1667 7.43 44.5417 7.694 44.875 8L47.208 7.416L48.458 9.541L46.5 11.333C46.5553 11.611 46.583 11.9583 46.583 12.375C46.583 12.7917 46.5553 13.1387 46.5 13.416L48.458 15.166L47.208 17.291L44.875 16.708C44.5417 17.0133 44.1667 17.2773 43.75 17.5C43.3333 17.722 42.9027 17.9023 42.458 18.041L42.042 20.708H39.417ZM40.708 15.666C41.6807 15.666 42.4793 15.3537 43.104 14.729C43.7293 14.1037 44.042 13.305 44.042 12.333C44.042 11.361 43.7293 10.5623 43.104 9.937C42.4793 9.31233 41.6807 9 40.708 9C39.736 9 38.9373 9.31233 38.312 9.937C37.6873 10.5623 37.375 11.361 37.375 12.333C37.375 13.305 37.6873 14.1037 38.312 14.729C38.9373 15.3537 39.736 15.666 40.708 15.666Z" fill="#5BAB47"/>
</g>
<defs>
<clipPath id="clip0_226_828">
<rect width="48" height="48" fill="white"/>
</clipPath>
</defs>
</svg>
