<svg width="40" height="40" viewBox="0 0 40 40" fill="none" xmlns="http://www.w3.org/2000/svg">
<path d="M28.917 26.333L28.708 24.375C28.4027 24.2917 28.132 24.1737 27.896 24.021C27.66 23.8683 27.4447 23.6947 27.25 23.5L25.5 24.292L24.125 22.042L25.708 20.875C25.5973 20.597 25.542 20.2777 25.542 19.917C25.542 19.5557 25.5973 19.236 25.708 18.958L24.125 17.792L25.542 15.583L27.25 16.375C27.4447 16.1803 27.653 16.0137 27.875 15.875C28.097 15.7363 28.3747 15.6253 28.708 15.542L28.917 13.542H31.583L31.792 15.542C32.1253 15.6253 32.403 15.7363 32.625 15.875C32.847 16.0137 33.0553 16.1803 33.25 16.375L34.958 15.583L36.375 17.792L34.792 18.958C34.9027 19.236 34.958 19.5557 34.958 19.917C34.958 20.2777 34.9027 20.597 34.792 20.875L36.375 22.042L35 24.292L33.25 23.5C33.0553 23.6947 32.84 23.8683 32.604 24.021C32.368 24.1737 32.0973 24.2917 31.792 24.375L31.583 26.333H28.917ZM30.25 22.625C31 22.625 31.632 22.368 32.146 21.854C32.66 21.34 32.917 20.708 32.917 19.958C32.917 19.1807 32.66 18.542 32.146 18.042C31.632 17.542 31 17.292 30.25 17.292C29.5 17.292 28.868 17.542 28.354 18.042C27.84 18.542 27.583 19.1807 27.583 19.958C27.583 20.708 27.84 21.34 28.354 21.854C28.868 22.368 29.5 22.625 30.25 22.625ZM11.125 38.333C10.347 38.333 9.68734 38.0623 9.14601 37.521C8.60401 36.979 8.33301 36.3193 8.33301 35.542V4.45799C8.33301 3.68066 8.60401 3.02099 9.14601 2.47899C9.68734 1.93766 10.347 1.66699 11.125 1.66699H28.875C29.653 1.66699 30.3127 1.93766 30.854 2.47899C31.396 3.02099 31.667 3.68066 31.667 4.45799V10.708H28.875V8.62499H11.125V31.375H28.875V29.292H31.667V35.542C31.667 36.3193 31.396 36.979 30.854 37.521C30.3127 38.0623 29.653 38.333 28.875 38.333H11.125ZM11.125 34.167V35.542H28.875V34.167H11.125ZM11.125 5.83299H28.875V4.45799H11.125V5.83299ZM11.125 4.45799V5.83299V4.45799ZM11.125 35.542V34.167V35.542Z" fill="#6852BF"/>
</svg>
