<svg width="40" height="40" viewBox="0 0 40 40" fill="none" xmlns="http://www.w3.org/2000/svg">
<path d="M14.375 37.5L11.208 32.125L5.04199 30.792L5.70799 24.667L1.66699 20L5.70799 15.375L5.04199 9.208L11.208 7.917L14.375 2.5L20 5.042L25.625 2.5L28.792 7.917L34.958 9.208L34.292 15.375L38.333 20L34.292 24.667L34.958 30.792L28.792 32.125L25.625 37.5L20 34.958L14.375 37.5ZM18.208 25.667L27.667 16.292L25.625 14.333L18.208 21.708L14.375 17.792L12.333 19.792L18.208 25.667ZM15.625 33.875L20 32.042L24.5 33.875L27.125 29.792L31.917 28.583L31.458 23.708L34.708 20L31.458 16.208L31.917 11.333L27.125 10.208L24.417 6.125L20 7.958L15.5 6.125L12.875 10.208L8.08299 11.333L8.54199 16.208L5.29199 20L8.54199 23.708L8.08299 28.667L12.875 29.792L15.625 33.875Z" fill="#5BAB47"/>
</svg>
