<svg width="40" height="40" viewBox="0 0 40 40" fill="none" xmlns="http://www.w3.org/2000/svg">
<path d="M21.792 29.125L27.625 23.292C27.9303 22.986 28.1593 22.6387 28.312 22.25C28.4653 21.8613 28.542 21.4447 28.542 21C28.542 20.0833 28.2223 19.3057 27.583 18.667C26.9443 18.0277 26.1667 17.708 25.25 17.708C24.6947 17.708 24.146 17.8817 23.604 18.229C23.0627 18.5763 22.4587 19.139 21.792 19.917C21.0693 19.111 20.4443 18.5413 19.917 18.208C19.389 17.8747 18.8473 17.708 18.292 17.708C17.4027 17.708 16.6387 18.0277 16 18.667C15.3613 19.3057 15.042 20.0833 15.042 21C15.042 21.4447 15.1183 21.8613 15.271 22.25C15.4237 22.6387 15.6527 22.986 15.958 23.292L21.792 29.125ZM21.458 36.667C21.0693 36.667 20.7083 36.5973 20.375 36.458C20.0417 36.3193 19.736 36.125 19.458 35.875L4.12501 20.542C3.87501 20.264 3.68067 19.9583 3.54201 19.625C3.40267 19.2917 3.33301 18.9307 3.33301 18.542V6.12501C3.33301 5.31967 3.59701 4.65301 4.12501 4.12501C4.65301 3.59701 5.31967 3.33301 6.12501 3.33301H18.542C18.9027 3.33301 19.2637 3.39567 19.625 3.52101C19.9863 3.64567 20.3197 3.84701 20.625 4.12501L35.875 19.417C36.4583 20.0003 36.75 20.674 36.75 21.438C36.75 22.2013 36.4583 22.8747 35.875 23.458L23.458 35.875C23.1807 36.125 22.8753 36.3193 22.542 36.458C22.2087 36.5973 21.8473 36.667 21.458 36.667ZM21.458 33.875L33.875 21.458L18.542 6.12501H6.12501V18.542L21.458 33.875ZM10.417 12.667C11.0277 12.667 11.5623 12.4447 12.021 12C12.479 11.5553 12.708 11.0137 12.708 10.375C12.708 9.76367 12.479 9.23601 12.021 8.79201C11.5623 8.34734 11.0277 8.12501 10.417 8.12501C9.80567 8.12501 9.27067 8.34734 8.81201 8.79201C8.35401 9.23601 8.12501 9.76367 8.12501 10.375C8.12501 11.0137 8.35401 11.5553 8.81201 12C9.27067 12.4447 9.80567 12.667 10.417 12.667Z" fill="#417DB5"/>
</svg>
