<svg width="40" height="40" viewBox="0 0 40 40" fill="none" xmlns="http://www.w3.org/2000/svg">
<path d="M18.125 30.542L12.292 24.75L14.292 22.792L18.125 26.542L25.542 19.125L27.542 21.125L18.125 30.542ZM7.792 36.667C7.042 36.667 6.389 36.389 5.833 35.833C5.27767 35.2777 5 34.625 5 33.875V8.87501C5 8.12501 5.27767 7.47934 5.833 6.93801C6.389 6.39601 7.042 6.12501 7.792 6.12501H10.125V3.33301H13.042V6.12501H26.958V3.33301H29.875V6.12501H32.208C32.958 6.12501 33.611 6.39601 34.167 6.93801C34.7223 7.47934 35 8.12501 35 8.87501V33.875C35 34.625 34.7223 35.2777 34.167 35.833C33.611 36.389 32.958 36.667 32.208 36.667H7.792ZM7.792 33.875H32.208V16.375H7.792V33.875ZM7.792 13.625H32.208V8.87501H7.792V13.625ZM7.792 13.625V8.87501V13.625Z" fill="#417DB5"/>
</svg>
