<svg width="40" height="40" viewBox="0 0 40 40" fill="none" xmlns="http://www.w3.org/2000/svg">
<path d="M29.125 34.625L18.583 24C17.9723 24.222 17.3613 24.3957 16.75 24.521C16.1387 24.6457 15.4997 24.708 14.833 24.708C12.111 24.708 9.79866 23.7567 7.89599 21.854C5.99333 19.9513 5.04199 17.6527 5.04199 14.958C5.04199 14.0413 5.15999 13.1597 5.39599 12.313C5.63199 11.4657 5.97233 10.667 6.41699 9.917L12.458 15.958L16.042 12.583L9.87499 6.417C10.625 5.97233 11.4167 5.625 12.25 5.375C13.0833 5.125 13.9443 5 14.833 5C17.583 5 19.9303 5.96533 21.875 7.896C23.8197 9.82667 24.792 12.1807 24.792 14.958C24.792 15.5973 24.7223 16.2293 24.583 16.854C24.4443 17.4793 24.264 18.0973 24.042 18.708L34.625 29.208C34.9583 29.5413 35.125 29.9303 35.125 30.375C35.125 30.8197 34.9583 31.1947 34.625 31.5L31.375 34.625C31.0697 34.9303 30.6947 35.083 30.25 35.083C29.8053 35.083 29.4303 34.9303 29.125 34.625ZM30.292 31.833L31.792 30.375L20.625 19.208C21.097 18.6527 21.4443 17.986 21.667 17.208C21.889 16.4307 22 15.6807 22 14.958C22 13.014 21.3057 11.3543 19.917 9.979C18.5277 8.60433 16.9163 7.86133 15.083 7.75L18.917 11.625C19.1943 11.903 19.333 12.2363 19.333 12.625C19.333 13.0137 19.1943 13.347 18.917 13.625L13.458 18.875C13.1807 19.153 12.8473 19.292 12.458 19.292C12.0693 19.292 11.736 19.153 11.458 18.875L7.74999 15.167C7.88866 17.111 8.64566 18.729 10.021 20.021C11.3957 21.3123 12.9997 21.958 14.833 21.958C15.5277 21.958 16.257 21.847 17.021 21.625C17.785 21.403 18.4587 21.0557 19.042 20.583L30.292 31.833Z" fill="#9B6E28"/>
</svg>
