<svg width="140" height="123" viewBox="0 0 140 123" fill="none" xmlns="http://www.w3.org/2000/svg">
<path d="M63.6384 115.638L70 122L76.3363 115.664" stroke="#D9D9D9"/>
<path d="M70 122V87" stroke="#D9D9D9" stroke-linecap="round"/>
<path d="M63.6384 28.6384L70 35L76.3363 28.6637" stroke="#D9D9D9"/>
<path d="M70 35V1" stroke="#D9D9D9" stroke-linecap="round"/>
<path fill-rule="evenodd" clip-rule="evenodd" d="M31.5494 51C26.2106 51 21.8791 53.4381 21.8791 58.6069V74.4059C27.2179 74.4059 31.5494 70.2123 31.5494 65.0436V51ZM11 65.0436C11 70.2123 15.3315 74.4059 20.6703 74.4059V55.6812C15.3315 55.6812 11 59.8747 11 65.0436ZM62.2286 74.8668C61.7249 74.8668 61.2025 74.8126 60.6614 74.7221C58.833 74.3788 57.3032 73.4751 56.1466 72.0291C53.7212 69.0288 54.001 64.7272 56.7995 62.0522C58.2548 60.6606 60.2883 59.8834 62.3591 59.9195C64.0569 59.9557 65.6427 60.5522 66.93 61.6004V53.3406H69.9151V74.5776H66.9487V73.1317C65.5308 74.2884 63.945 74.8668 62.2286 74.8668ZM62.2099 62.9017C60.9226 62.9017 59.7286 63.3717 58.833 64.2393C57.9562 65.0707 57.4711 66.1912 57.4711 67.366C57.4711 68.559 57.9375 69.6615 58.8144 70.5109C59.7099 71.3785 60.9039 71.8665 62.2099 71.8665C64.8031 71.8665 66.9113 69.8603 66.9113 67.4022C66.93 64.9442 64.8218 62.9198 62.2286 62.9017H62.2099ZM91.2914 81.4277H88.3251V60.1907H91.2914V61.5824C92.9519 60.1906 94.743 59.9015 96.0302 59.9195C98.213 59.9376 100.396 60.8594 101.739 62.3234C104.332 65.161 104.407 69.4085 101.926 72.2099C100.47 73.8547 98.6048 74.7402 96.3847 74.8487C94.4817 74.9391 92.784 74.3607 91.3101 73.1317V81.4277H91.2914ZM96.0302 62.9017C94.743 62.9017 93.5303 63.3898 92.6348 64.2573C91.7766 65.1068 91.2914 66.2093 91.2914 67.3841C91.2914 69.8783 93.3624 71.8484 95.9929 71.8665C97.2802 71.8845 98.4742 71.3966 99.3697 70.5471C100.247 69.6976 100.732 68.577 100.732 67.3841C100.732 64.908 98.6234 62.9017 96.0302 62.9017ZM40.2625 73.0233C41.6617 74.2161 43.4528 74.8307 45.2251 74.8307C46.4005 74.8307 47.5758 74.5595 48.6392 73.9812C49.1244 73.71 49.5908 73.3847 50.0198 73.0594V74.5776H53.0609V72.3726V67.4022C53.0422 66.2455 52.837 65.2333 52.3892 64.3115C50.8781 61.1847 47.7438 59.5219 44.199 59.9557C40.729 60.3713 37.8371 63.3356 37.6133 66.6793C37.4454 69.2638 38.3409 71.3966 40.2625 73.0233ZM45.2997 62.7752C44.0311 62.7752 42.8557 63.2452 41.9603 64.1128C41.0648 64.9803 40.5797 66.1189 40.5797 67.3479C40.5797 69.9145 42.6692 71.9207 45.3184 71.9207C47.9116 71.9207 50.0198 69.8783 50.0198 67.3479C50.0198 64.8356 47.9116 62.7933 45.2997 62.7752ZM78.8235 74.8307C77.0511 74.8307 75.2601 74.2161 73.8609 73.0233C71.9392 71.3966 71.0437 69.2638 71.2116 66.6793C71.4355 63.3356 74.3272 60.3713 77.7974 59.9557C81.3421 59.5219 84.4764 61.1847 85.9875 64.3115C86.4353 65.2333 86.6406 66.2455 86.6592 67.4022V72.3726V74.5776H83.6182V73.0594C83.1891 73.3847 82.7227 73.71 82.2376 73.9812C81.1742 74.5595 79.9989 74.8307 78.8235 74.8307ZM75.5586 64.1128C76.4541 63.2452 77.6294 62.7752 78.8981 62.7752C81.51 62.7933 83.6182 64.8356 83.6182 67.3479C83.6182 69.8783 81.51 71.9207 78.9168 71.9207C76.2675 71.9207 74.178 69.9145 74.178 67.3479C74.178 66.1189 74.663 64.9803 75.5586 64.1128ZM115.13 81.4277H115.28H115.336C115.391 81.4096 115.448 81.4096 115.504 81.4096C115.572 81.4036 115.641 81.3995 115.709 81.3956C115.846 81.3874 115.983 81.3794 116.119 81.3554C118.694 80.9396 120.615 79.566 121.79 77.2525L129.944 61.3474L127.239 60.028L122.164 69.9145L117.052 60.028L114.366 61.2932L114.59 61.7631C114.609 61.8083 114.631 61.8535 114.655 61.8986C114.678 61.9438 114.702 61.989 114.72 62.0342L115.522 63.5886C116.209 64.9113 116.903 66.2573 117.6 67.6107C118.532 69.4198 119.471 71.2424 120.41 73.0413C120.485 73.1859 120.485 73.2401 120.41 73.3847C119.981 74.198 119.533 75.0837 119.049 76.0777C118.526 77.1441 117.65 77.8671 116.455 78.2647C116.19 78.3554 115.925 78.4081 115.638 78.4652C115.582 78.4764 115.525 78.4878 115.467 78.4997C115.317 78.5358 115.15 78.5719 114.982 78.608L114.981 78.6081L114.683 78.6804V81.4096L115.037 81.4277H115.13ZM110.422 74.8126C109.992 74.8126 109.545 74.7402 109.097 74.6137C107.418 74.1438 106.317 73.0052 105.888 71.3243C105.795 70.9628 105.758 70.5652 105.758 70.041V64.9079V63.0644H104.228V60.1726H105.758V54.6961H108.761V60.1545H112.996V63.0825H108.78V64.7633V70.2578C108.78 70.782 108.967 71.2159 109.321 71.5231C109.657 71.7942 110.105 71.9207 110.59 71.8665C110.795 71.8484 111.037 71.7399 111.28 71.6315L111.671 71.4689L111.895 71.3785L113.817 73.3305L113.537 73.5835C112.605 74.3968 111.56 74.8126 110.422 74.8126Z" fill="#111111"/>
</svg>
