<svg width="48" height="48" viewBox="0 0 48 48" fill="none" xmlns="http://www.w3.org/2000/svg">
<path d="M31 39V25H36.7089C37.7578 25 38.6327 25.1527 39.3335 25.458C40.0344 25.7633 40.5612 26.1872 40.9139 26.7295C41.2667 27.2673 41.443 27.887 41.443 28.5889C41.443 29.1357 41.3316 29.6165 41.1089 30.0312C40.8861 30.4414 40.5797 30.7786 40.1899 31.043C39.8046 31.3027 39.3637 31.4873 38.8671 31.5967V31.7334C39.4101 31.7562 39.9184 31.9066 40.3918 32.1846C40.8698 32.4626 41.2574 32.8522 41.5544 33.3535C41.8515 33.8503 42 34.4427 42 35.1309C42 35.8737 41.812 36.5368 41.4361 37.1201C41.0648 37.6989 40.5148 38.1569 39.7861 38.4941C39.0574 38.8314 38.1593 39 37.0918 39H31ZM34.0146 36.5801H36.4722C37.3122 36.5801 37.9249 36.4229 38.3101 36.1084C38.6954 35.7894 38.888 35.3656 38.888 34.8369C38.888 34.4495 38.7928 34.1077 38.6025 33.8115C38.4122 33.5153 38.1407 33.2829 37.788 33.1143C37.4399 32.9456 37.0245 32.8613 36.5418 32.8613H34.0146V36.5801ZM34.0146 30.8584H36.2494C36.6624 30.8584 37.0291 30.7878 37.3494 30.6465C37.6743 30.5007 37.9295 30.2956 38.1152 30.0312C38.3055 29.7669 38.4006 29.4502 38.4006 29.0811C38.4006 28.5752 38.2173 28.1673 37.8506 27.8574C37.4886 27.5475 36.9734 27.3926 36.3051 27.3926H34.0146V30.8584Z" fill="#5BAB47"/>
<path fill-rule="evenodd" clip-rule="evenodd" d="M35.0003 9.00001C35.7028 9.43907 35 9.00005 36.2721 9.79499L16.2722 41.7949C14.9999 41 15.7024 41.439 14.9999 41C14.2974 40.5609 15.0003 41.0001 13.7282 40.2049L33.7281 8.205C35 9.00005 34.2978 8.56094 35.0003 9.00001Z" fill="#5BAB47"/>
<path d="M9.29579 23H6L11.0218 9H14.9853L20 23H16.7042L13.0604 12.1992H12.9467L9.29579 23ZM9.0898 17.4971H16.8747V19.8076H9.0898V17.4971Z" fill="#5BAB47"/>
</svg>
