<svg width="140" height="60" viewBox="0 0 140 60" fill="none" xmlns="http://www.w3.org/2000/svg">
<g clip-path="url(#clip0_26745_30136)">
<path d="M19.7858 37.9559C19.0863 37.9559 18.5729 37.7211 18.2455 37.2516C17.9182 36.7821 17.9182 36.1952 18.2455 35.491L23.8037 23.6945C24.0716 23.1223 24.399 22.7041 24.7859 22.44C25.1728 22.1759 25.6267 22.0439 26.1475 22.0439C26.6535 22.0439 27.0999 22.1759 27.4868 22.44C27.8738 22.7041 28.2012 23.1223 28.469 23.6945L34.0272 35.491C34.3695 36.2099 34.3844 36.8041 34.0718 37.2736C33.7593 37.7284 33.2682 37.9559 32.5986 37.9559C32.0033 37.9559 31.542 37.8238 31.2146 37.5597C30.9021 37.2956 30.6194 36.8701 30.3664 36.2833C30.3664 36.2833 30.0626 35.1902 29.6521 34.6106C28.0649 32.3698 22.6207 34.6106 22.6207 34.6106L21.9063 36.2833C21.6385 36.8701 21.3632 37.2956 21.0804 37.5597C20.7977 37.8238 20.3661 37.9559 19.7858 37.9559ZM26.1029 26.4676L23.96 31.5075H28.2905L26.1475 26.4676H26.1029Z" fill="#FF4E2C"/>
<path d="M44.4048 38C43.4971 38 42.5596 37.9119 41.5923 37.7359C40.6399 37.5452 39.8214 37.281 39.1369 36.9436C38.7351 36.7529 38.4523 36.4961 38.2887 36.1733C38.125 35.8505 38.0654 35.5204 38.1101 35.183C38.1547 34.8308 38.2812 34.5227 38.4895 34.2586C38.6979 33.9798 38.9732 33.7964 39.3154 33.7084C39.6577 33.6057 40.0446 33.6497 40.4762 33.8404C41.0417 34.1192 41.6816 34.3319 42.3959 34.4787C43.1102 34.6107 43.7798 34.6767 44.4048 34.6767C45.387 34.6767 46.0715 34.5521 46.4585 34.3026C46.8603 34.0385 47.0612 33.7158 47.0612 33.3343C47.0612 32.9968 46.9198 32.7254 46.6371 32.5199C46.3692 32.3145 45.8856 32.1385 45.1861 31.9918L42.5744 31.4415C39.747 30.84 38.3333 29.3801 38.3333 27.0619C38.3333 26.0495 38.6086 25.1619 39.1592 24.3989C39.7247 23.6359 40.5059 23.0491 41.503 22.6382C42.5 22.2127 43.6608 22 44.9852 22C45.759 22 46.5403 22.088 47.329 22.2641C48.1326 22.4255 48.8246 22.6749 49.405 23.0124C49.8514 23.2471 50.1342 23.5699 50.2532 23.9807C50.3723 24.3769 50.3574 24.7657 50.2086 25.1472C50.0598 25.5287 49.7919 25.8074 49.405 25.9835C49.033 26.1596 48.5568 26.1302 47.9764 25.8955C47.5299 25.7047 47.0389 25.5653 46.5031 25.4773C45.9674 25.3746 45.4466 25.3232 44.9406 25.3232C44.1072 25.3232 43.4674 25.47 43.0209 25.7634C42.5744 26.0422 42.3512 26.409 42.3512 26.8638C42.3512 27.1866 42.4851 27.4507 42.753 27.6561C43.0209 27.8615 43.4971 28.0376 44.1816 28.1843L46.771 28.7345C49.6431 29.3361 51.0791 30.7593 51.0791 33.0041C51.0791 34.0165 50.8038 34.8969 50.2532 35.6451C49.7026 36.3934 48.9288 36.9729 47.9317 37.3838C46.9347 37.7946 45.759 38 44.4048 38Z" fill="#FF4E2C"/>
<path d="M56.3371 37.956C55.6376 37.956 55.1242 37.7212 54.7968 37.2517C54.4694 36.7822 54.4694 36.1953 54.7968 35.4911L60.355 23.6946C60.6228 23.1224 60.9502 22.7043 61.3372 22.4402C61.7241 22.1761 62.178 22.044 62.6988 22.044C63.2047 22.044 63.6512 22.1761 64.0381 22.4402C64.4251 22.7043 64.7524 23.1224 65.0203 23.6946L70.5785 35.4911C70.9207 36.21 70.9356 36.8042 70.6231 37.2737C70.3106 37.7285 69.8195 37.956 69.1498 37.956C68.5546 37.956 68.0933 37.8239 67.7659 37.5598C67.4534 37.2957 67.1707 36.8702 66.9177 36.2834L66.2033 34.6107H59.1719L58.4576 36.2834C58.1898 36.8702 57.9145 37.2957 57.6317 37.5598C57.349 37.8239 56.9174 37.956 56.3371 37.956ZM62.6542 26.4677L60.5113 31.5076H64.8417L62.6988 26.4677H62.6542Z" fill="#FF4E2C"/>
<path d="M77.3576 37.956C76.7028 37.956 76.1968 37.7799 75.8396 37.4278C75.4825 37.0756 75.304 36.5695 75.304 35.9092V24.2889C75.304 23.6286 75.4825 23.1224 75.8396 22.7703C76.1968 22.4182 76.7102 22.2421 77.3799 22.2421H82.8713C84.6571 22.2421 86.0331 22.6969 87.0005 23.6066C87.9827 24.5016 88.4737 25.7414 88.4737 27.326C88.4737 28.9106 87.9827 30.1577 87.0005 31.0674C86.0331 31.9624 84.6571 32.4099 82.8713 32.4099H79.4111V35.9092C79.4111 36.5695 79.2326 37.0756 78.8755 37.4278C78.5332 37.7799 78.0272 37.956 77.3576 37.956ZM79.4111 29.3068H82.1568C83.7642 29.3068 84.5673 28.6465 84.5673 27.326C84.5673 26.0055 83.7642 25.3453 82.1568 25.3453H79.4111V29.3068Z" fill="#FF4E2C"/>
<path d="M98.4775 37.956C97.8228 37.956 97.3169 37.7799 96.96 37.4278C96.6025 37.0756 96.424 36.5695 96.424 35.9092V25.5433H92.9194C91.7883 25.5433 91.2234 24.9931 91.2234 23.8927C91.2234 22.7923 91.7883 22.2421 92.9194 22.2421H104.036C105.167 22.2421 105.732 22.7923 105.732 23.8927C105.732 24.9931 105.167 25.5433 104.036 25.5433H100.532V35.9092C100.532 36.5695 100.353 37.0756 99.9957 37.4278C99.6535 37.7799 99.1477 37.956 98.4775 37.956Z" fill="#FF4E2C"/>
<path d="M115.892 37.956C115.237 37.956 114.732 37.7799 114.375 37.4278C114.017 37.061 113.839 36.5401 113.839 35.8652V30.8913L109.553 24.773C109.3 24.4209 109.188 24.0321 109.218 23.6066C109.263 23.1811 109.441 22.8143 109.754 22.5062C110.081 22.1981 110.543 22.044 111.138 22.044C111.554 22.044 111.934 22.1467 112.276 22.3521C112.618 22.5575 112.938 22.8877 113.236 23.3425L115.959 27.282L118.682 23.3205C118.995 22.8657 119.315 22.5429 119.642 22.3521C119.97 22.1467 120.357 22.044 120.803 22.044C121.369 22.044 121.808 22.1834 122.12 22.4622C122.433 22.7409 122.596 23.0931 122.611 23.5186C122.641 23.9441 122.507 24.3769 122.209 24.8171L117.946 30.8913V35.8652C117.946 37.2591 117.261 37.956 115.892 37.956Z" fill="#FF4E2C"/>
</g>
<defs>
<clipPath id="clip0_26745_30136">
<rect width="104.615" height="16" fill="white" transform="translate(18 22)"/>
</clipPath>
</defs>
</svg>
