<svg width="154" height="66" viewBox="0 0 154 66" fill="none" xmlns="http://www.w3.org/2000/svg">
<path d="M63.7746 21.4687L62.3394 21.9094C62.2821 21.6031 62.1302 21.3226 61.9051 21.1076C61.7611 20.9806 61.5932 20.8837 61.4113 20.8226C61.2294 20.7615 61.0373 20.7375 60.846 20.7519C60.5124 20.7374 60.1849 20.8449 59.9245 21.0545C59.8129 21.1424 59.7226 21.2545 59.6602 21.3823C59.5979 21.51 59.5651 21.6503 59.5644 21.7926C59.5644 22.2917 59.8609 22.5997 60.4541 22.7165L61.598 22.9341C62.2387 23.0338 62.8296 23.3395 63.2821 23.805C63.6749 24.2242 63.8895 24.7803 63.8805 25.3554C63.8809 25.6918 63.8097 26.0244 63.6718 26.3312C63.5339 26.6379 63.3324 26.9116 63.0808 27.1342C62.4884 27.6587 61.7146 27.9295 60.9254 27.8882C60.4513 27.8959 59.9797 27.8185 59.5326 27.6599C59.1548 27.5314 58.8109 27.319 58.5264 27.0387C58.2848 26.799 58.0843 26.5208 57.9333 26.2156C57.791 25.9375 57.7029 25.6347 57.6738 25.3236L59.1513 24.9253C59.1822 25.3474 59.3714 25.7421 59.6809 26.0298C59.8546 26.183 60.0567 26.3002 60.2757 26.375C60.4948 26.4497 60.7263 26.4804 60.9572 26.4651C61.3037 26.4854 61.6469 26.3881 61.9316 26.189C62.0434 26.1044 62.1336 25.9944 62.1943 25.8679C62.2552 25.7413 62.2849 25.602 62.2812 25.4616C62.2828 25.3457 62.2605 25.2308 62.2159 25.1239C62.1712 25.0171 62.1051 24.9205 62.0217 24.8404C61.8194 24.6516 61.5644 24.5293 61.2909 24.4899L60.147 24.2563C59.5438 24.1575 58.9875 23.8694 58.5581 23.4333C58.3657 23.2303 58.215 22.9912 58.1151 22.7297C58.0151 22.4682 57.9677 22.1894 57.9756 21.9094C57.9709 21.5605 58.0442 21.2148 58.1898 20.8979C58.3356 20.5809 58.5501 20.3006 58.8176 20.0775C59.3715 19.5854 60.0904 19.3218 60.8301 19.3395C61.2584 19.3314 61.6848 19.3979 62.0905 19.5359C62.4216 19.6435 62.724 19.825 62.9749 20.0669C63.1829 20.2649 63.3613 20.492 63.5045 20.7412C63.6253 20.9711 63.716 21.2156 63.7746 21.4687Z" fill="#04003B"/>
<path d="M66.5094 29.9195H64.9736V22.0239H66.4618V22.7195C66.6281 22.4664 66.8608 22.2643 67.1343 22.1354C67.4632 21.9718 67.8265 21.8899 68.1935 21.8965C68.5548 21.8792 68.9153 21.9448 69.2475 22.0884C69.5797 22.232 69.8749 22.4496 70.1105 22.7248C70.5742 23.3452 70.8217 24.101 70.8151 24.8762C70.8084 25.6513 70.5478 26.4029 70.0735 27.0151C69.8335 27.2902 69.5357 27.5086 69.2015 27.6546C68.8672 27.8006 68.5049 27.8704 68.1405 27.8593C67.831 27.8867 67.5196 27.8376 67.2333 27.7164C66.9472 27.5951 66.695 27.4054 66.4988 27.1638L66.5094 29.9195ZM68.9137 26.0487C69.1748 25.7135 69.3167 25.3005 69.3167 24.8753C69.3167 24.45 69.1748 24.0369 68.9137 23.7017C68.7858 23.5633 68.6299 23.4538 68.4563 23.3806C68.2828 23.3073 68.0957 23.272 67.9075 23.277C67.7173 23.2722 67.5282 23.308 67.3529 23.3822C67.1776 23.4564 67.02 23.5671 66.8908 23.7071C66.6296 24.0402 66.4877 24.4516 66.4877 24.8753C66.4877 25.2989 66.6296 25.7102 66.8908 26.0433C67.0188 26.1851 67.1761 26.2975 67.3516 26.3726C67.5271 26.4478 67.7167 26.484 67.9075 26.4788C68.0962 26.4841 68.2839 26.4485 68.4576 26.3743C68.6313 26.3 68.7869 26.189 68.9137 26.0487Z" fill="#04003B"/>
<path d="M73.568 27.7174H72.0322V19.3386H73.568V27.7174Z" fill="#04003B"/>
<path d="M75.0245 20.1572C75.0225 20.0319 75.0458 19.9076 75.0931 19.7917C75.1405 19.6757 75.2109 19.5707 75.3 19.4828C75.385 19.391 75.4883 19.318 75.6033 19.2686C75.7182 19.2192 75.8422 19.1945 75.9672 19.1961C76.0926 19.1961 76.2168 19.2211 76.3324 19.2695C76.4482 19.3179 76.5532 19.3889 76.6413 19.4783C76.7295 19.5676 76.7991 19.6737 76.846 19.7902C76.8931 19.9068 76.9166 20.0315 76.9152 20.1572C76.9167 20.2808 76.8931 20.4034 76.8458 20.5176C76.7984 20.6317 76.7283 20.7349 76.6398 20.8209C76.4613 20.9976 76.2206 21.0967 75.9698 21.0967C75.7191 21.0967 75.4783 20.9976 75.3 20.8209C75.2114 20.7349 75.1413 20.6317 75.0939 20.5176C75.0466 20.4034 75.0231 20.2808 75.0245 20.1572ZM76.7457 27.7183H75.2099V22.021H76.7457V27.7183Z" fill="#04003B"/>
<path d="M80.2795 20.3267V22.0258H81.4181V23.3903H80.2795V25.7798C80.2673 25.8745 80.2751 25.9708 80.3025 26.0622C80.3299 26.1537 80.3762 26.2384 80.4384 26.3107C80.5883 26.4286 80.7788 26.482 80.9679 26.4595C81.1265 26.4649 81.2851 26.4489 81.4393 26.4116V27.686C81.1628 27.7864 80.8699 27.8333 80.576 27.824C80.3364 27.8374 80.0964 27.8029 79.8701 27.7228C79.6437 27.6426 79.4355 27.5181 79.2574 27.3568C79.0922 27.187 78.9641 26.9846 78.8811 26.7625C78.7981 26.5404 78.7622 26.3033 78.7755 26.0665V23.4116H77.748V22.047H78.0341C78.1543 22.0563 78.2751 22.0387 78.3877 21.9956C78.5004 21.9524 78.6021 21.8847 78.6855 21.7974C78.8439 21.6182 78.9256 21.3836 78.9132 21.1443V20.3479L80.2795 20.3267Z" fill="#04003B"/>
<path d="M91.9393 27.7168H90.3506V21.9609L87.9939 27.7168H86.6646L84.3133 22.0087V27.7168H82.7881V19.5078H84.9065L87.3637 25.4335L89.7627 19.5078H91.934L91.9393 27.7168Z" fill="#04003B"/>
<path d="M97.4679 25.7085L98.7496 26.0855C98.5994 26.6075 98.2809 27.0649 97.844 27.3864C97.3546 27.7343 96.7648 27.9117 96.1652 27.8908C95.7819 27.8999 95.4006 27.8318 95.044 27.6903C94.6873 27.549 94.3628 27.3373 94.0893 27.0678C93.5423 26.4727 93.2364 25.6945 93.2315 24.8853C93.2266 24.0762 93.523 23.2942 94.0627 22.6926C94.3142 22.4236 94.6187 22.2101 94.9571 22.0657C95.2953 21.9212 95.6598 21.849 96.0275 21.8536C96.4067 21.8316 96.7863 21.8903 97.1413 22.0257C97.4963 22.1612 97.8188 22.3703 98.0876 22.6395C98.6098 23.2335 98.878 24.0098 98.8343 24.8005C98.8343 24.8642 98.8343 24.9332 98.8343 25.0129C98.8343 25.0926 98.8343 25.151 98.8343 25.1988V25.2784H94.7723C94.776 25.4548 94.8171 25.6285 94.8929 25.7878C94.9687 25.9471 95.0774 26.0884 95.212 26.2023C95.4825 26.4485 95.8369 26.5815 96.2023 26.574C96.4794 26.5928 96.755 26.5178 96.9845 26.3608C97.214 26.2039 97.3843 25.9741 97.4679 25.7085ZM94.7777 24.2218H97.3196C97.3111 23.9229 97.19 23.6383 96.9807 23.4253C96.8556 23.3105 96.7084 23.2225 96.5481 23.1668C96.3878 23.111 96.2179 23.0888 96.0487 23.1014C95.8832 23.0951 95.7181 23.1224 95.5633 23.1817C95.4087 23.2411 95.2675 23.3311 95.1484 23.4465C94.9312 23.6528 94.799 23.9331 94.7777 24.2324V24.2218Z" fill="#04003B"/>
<path d="M101.932 20.3267V22.0258H103.076V23.3904H101.932V25.7798C101.92 25.8745 101.928 25.9708 101.955 26.0622C101.982 26.1537 102.028 26.2384 102.091 26.3107C102.241 26.4271 102.431 26.4803 102.62 26.4595C102.781 26.4648 102.941 26.4487 103.097 26.4116V27.686C102.819 27.7865 102.524 27.8333 102.228 27.824C101.99 27.837 101.751 27.8023 101.525 27.7221C101.3 27.6419 101.092 27.5178 100.915 27.3568C100.749 27.1873 100.62 26.985 100.536 26.7629C100.452 26.5408 100.416 26.3037 100.428 26.0665V23.4116H99.4004V22.047H99.6917C99.8119 22.0555 99.9325 22.0376 100.045 21.9946C100.158 21.9514 100.259 21.8841 100.343 21.7974C100.497 21.6159 100.577 21.3824 100.566 21.1443V20.3479L101.932 20.3267Z" fill="#04003B"/>
<path d="M107.764 21.9972V23.5478C107.612 23.5161 107.458 23.5 107.303 23.4999C106.915 23.4842 106.535 23.6192 106.244 23.8769C106.094 24.0424 105.981 24.2377 105.912 24.45C105.843 24.6622 105.819 24.8867 105.841 25.1088V27.7159H104.306V22.0185H105.794V22.8628C105.938 22.5651 106.171 22.3197 106.46 22.1608C106.75 22.0019 107.081 21.9373 107.409 21.976C107.528 21.9772 107.646 21.9844 107.764 21.9972Z" fill="#04003B"/>
<path d="M108.669 20.1572C108.667 20.032 108.69 19.9076 108.738 19.7917C108.785 19.6758 108.855 19.5707 108.944 19.4829C109.03 19.3906 109.135 19.3174 109.25 19.268C109.366 19.2186 109.491 19.1942 109.617 19.1962C109.804 19.1988 109.985 19.2563 110.14 19.3615C110.294 19.4667 110.414 19.6149 110.485 19.7879C110.556 19.9609 110.575 20.151 110.539 20.3346C110.504 20.5183 110.415 20.6874 110.284 20.8209C110.106 20.9977 109.865 21.0968 109.614 21.0968C109.364 21.0968 109.123 20.9977 108.944 20.8209C108.856 20.7349 108.786 20.6317 108.738 20.5176C108.691 20.4035 108.667 20.2808 108.669 20.1572ZM110.38 27.7183H108.844V22.021H110.38V27.7183Z" fill="#04003B"/>
<path d="M114.577 23.2747C114.386 23.2707 114.196 23.3064 114.019 23.3794C113.842 23.4526 113.682 23.5615 113.55 23.6994C113.277 24.0297 113.129 24.4446 113.129 24.8729C113.129 25.3012 113.277 25.7161 113.55 26.0464C113.683 26.1857 113.843 26.2958 114.021 26.3699C114.199 26.444 114.39 26.4802 114.582 26.4765C114.896 26.4937 115.206 26.3935 115.451 26.1951C115.658 26.0175 115.809 25.7831 115.885 25.5207L117.241 25.9721C117.091 26.5089 116.774 26.9836 116.335 27.326C115.835 27.7153 115.215 27.9146 114.582 27.8889C114.189 27.8973 113.799 27.8254 113.435 27.6775C113.071 27.5297 112.74 27.3088 112.464 27.0287C111.913 26.4449 111.605 25.6716 111.605 24.8676C111.605 24.0637 111.913 23.2903 112.464 22.7065C112.735 22.4268 113.06 22.2064 113.42 22.0592C113.78 21.9121 114.167 21.8414 114.556 21.8517C115.196 21.824 115.825 22.0211 116.335 22.4092C116.775 22.7522 117.088 23.2324 117.225 23.7738L115.848 24.2357C115.79 23.9472 115.629 23.6898 115.395 23.5126C115.161 23.3354 114.869 23.2508 114.577 23.2747Z" fill="#04003B"/>
<path d="M117.883 26.1326L119.201 25.8459C119.207 25.9632 119.235 26.0785 119.287 26.1844C119.337 26.2903 119.41 26.3847 119.498 26.4617C119.704 26.6367 119.97 26.726 120.239 26.7113C120.438 26.7235 120.634 26.6673 120.795 26.5519C120.856 26.5026 120.905 26.4403 120.939 26.3696C120.973 26.299 120.991 26.2216 120.991 26.1432C120.991 25.8617 120.785 25.676 120.377 25.6121L119.63 25.437C119.174 25.3646 118.754 25.1446 118.434 24.8104C118.173 24.5188 118.031 24.1398 118.036 23.7485C118.034 23.4972 118.087 23.2484 118.191 23.0198C118.295 22.7913 118.449 22.5887 118.64 22.4263C119.062 22.0639 119.605 21.8743 120.16 21.8954C120.506 21.8878 120.851 21.9435 121.177 22.0599C121.433 22.1484 121.665 22.2956 121.855 22.49C122.005 22.6469 122.13 22.8261 122.225 23.0211C122.306 23.189 122.361 23.3678 122.39 23.552L121.108 23.8441C121.075 23.6433 120.981 23.4578 120.838 23.313C120.748 23.2319 120.642 23.1699 120.527 23.1307C120.413 23.0915 120.291 23.0758 120.171 23.0848C119.981 23.0761 119.794 23.1323 119.641 23.2441C119.575 23.2898 119.522 23.351 119.485 23.4222C119.448 23.4934 119.429 23.5726 119.429 23.6529C119.429 23.929 119.604 24.0989 119.959 24.1573L120.764 24.3325C121.238 24.4095 121.676 24.6322 122.019 24.9698C122.16 25.117 122.272 25.2908 122.346 25.4812C122.421 25.6716 122.457 25.8749 122.453 26.0795C122.454 26.3279 122.403 26.5738 122.303 26.8014C122.204 27.0291 122.058 27.2334 121.876 27.4016C121.423 27.7869 120.837 27.9777 120.245 27.9326C119.884 27.9371 119.526 27.8779 119.186 27.7573C118.909 27.6608 118.657 27.5029 118.449 27.2954C118.294 27.1247 118.162 26.9336 118.058 26.7272C117.968 26.5398 117.909 26.3388 117.883 26.1326Z" fill="#04003B"/>
<path d="M32.1356 29.8361C33.383 31.0832 34.3329 32.5947 34.9149 34.2585C35.4969 35.9223 35.696 37.6957 35.4974 39.4468C37.7026 39.2019 39.7938 38.3401 41.53 36.9608C43.2661 35.5813 44.5768 33.7404 45.3109 31.65C46.045 29.5597 46.1729 27.3048 45.6795 25.145C45.1862 22.9853 44.0919 21.0086 42.5225 19.4426C40.9531 17.8765 38.9726 16.7849 36.8091 16.2932C34.6455 15.8016 32.3869 15.9301 30.2932 16.6638C28.1996 17.3976 26.3561 18.7067 24.9751 20.4406C23.5941 22.1744 22.7317 24.2624 22.4873 26.4641C24.246 26.2649 26.0271 26.4647 27.6977 27.0486C29.3683 27.6324 30.8853 28.5853 32.1356 29.8361Z" fill="#00C4D1"/>
<path d="M25.9093 36.0717C24.6587 34.8263 23.7055 33.3154 23.1207 31.6515C22.5359 29.9875 22.3345 28.2134 22.5315 26.4609C20.3215 26.6968 18.2235 27.5519 16.4795 28.9272C14.7356 30.3027 13.4167 32.1423 12.6752 34.234C11.9337 36.3256 11.7998 38.5839 12.289 40.7483C12.7781 42.9128 13.8704 44.8948 15.4397 46.466C17.009 48.0371 18.9914 49.1333 21.158 49.6279C23.3246 50.1223 25.5871 49.9952 27.6844 49.2609C29.7818 48.5267 31.6284 47.2154 33.011 45.4783C34.3938 43.7412 35.2562 41.6492 35.499 39.4436C33.7496 39.6334 31.9799 39.4289 30.3202 38.8454C28.6607 38.2618 27.1532 37.314 25.9093 36.0717Z" fill="#00C4D1"/>
<path d="M57.6767 41.9104C57.6571 41.4416 57.7379 40.9741 57.9137 40.5391C58.0896 40.1041 58.3564 39.7117 58.6962 39.3882C59.439 38.7292 60.3652 38.3123 61.3511 38.1936L64.3671 37.7422C64.983 37.6625 65.2909 37.3706 65.2909 36.8714C65.2964 36.6523 65.2513 36.4349 65.1592 36.236C65.0671 36.0371 64.9305 35.8621 64.76 35.7244C64.2821 35.4114 63.7184 35.2549 63.1475 35.2768C62.5766 35.2987 62.0266 35.4979 61.5741 35.8466C61.172 36.2163 60.9253 36.725 60.8838 37.2696L57.9422 36.6431C58.0872 35.5321 58.6583 34.521 59.5351 33.8236C60.5787 32.9676 61.9041 32.532 63.252 32.6023C65.0786 32.6023 66.4255 33.0395 67.2927 33.9138C67.725 34.3561 68.0626 34.8817 68.2854 35.4586C68.5081 36.0354 68.6112 36.6517 68.5884 37.2696V43.3069C68.5829 43.9598 68.6344 44.6117 68.7424 45.2556H65.6415C65.5454 44.7714 65.5027 44.2783 65.514 43.7848C65.1275 44.3823 64.5887 44.8661 63.9532 45.1862C63.3176 45.5063 62.6081 45.6512 61.8979 45.606C60.7731 45.6596 59.673 45.2642 58.8395 44.507C58.4734 44.1807 58.1805 43.7807 57.9801 43.3332C57.7796 42.8857 57.6762 42.4008 57.6767 41.9104ZM62.5936 43.1316C63.2971 43.1587 63.9858 42.9242 64.5264 42.4733C64.8027 42.1857 65.0137 41.8418 65.1448 41.4651C65.2759 41.0885 65.3239 40.6879 65.2856 40.2909V39.7599L62.5192 40.1848C61.4998 40.3334 60.9953 40.8537 60.9953 41.7352C60.9911 41.9238 61.0266 42.1112 61.0998 42.285C61.1731 42.4589 61.2822 42.6153 61.4201 42.744C61.5819 42.8856 61.7708 42.9929 61.9752 43.0595C62.1795 43.1262 62.3954 43.1507 62.6095 43.1316H62.5936Z" fill="#04003B"/>
<path d="M77.3486 35.6695C76.9348 35.6605 76.5235 35.7379 76.1414 35.897C75.7592 36.0562 75.4144 36.2934 75.1292 36.5933C74.8193 36.933 74.5805 37.331 74.4264 37.764C74.2723 38.197 74.2061 38.6565 74.2318 39.1156C74.2078 39.5767 74.2759 40.0382 74.4318 40.473C74.5877 40.9078 74.8283 41.3073 75.1398 41.6483C75.4275 41.9502 75.7747 42.189 76.1595 42.3499C76.5442 42.5107 76.9582 42.5901 77.3752 42.5828C78.0525 42.6191 78.719 42.4013 79.2442 41.9721C79.696 41.5879 80.0262 41.0805 80.1948 40.512L83.1152 41.4837C82.797 42.6417 82.1136 43.6659 81.1664 44.4041C80.0872 45.2473 78.7437 45.6801 77.3752 45.6253C76.5191 45.6377 75.6694 45.4774 74.8767 45.154C74.0839 44.8306 73.3644 44.3508 72.7613 43.7432C72.1582 43.1355 71.6837 42.4126 71.3661 41.6175C71.0486 40.8224 70.8945 39.9715 70.9131 39.1156C70.887 38.2541 71.0358 37.3963 71.3507 36.5941C71.6655 35.7918 72.14 35.0618 72.7451 34.4482C73.3329 33.8459 74.0383 33.371 74.8174 33.0532C75.5967 32.7353 76.433 32.5811 77.2743 32.6003C78.658 32.5414 80.0185 32.9699 81.1186 33.811C82.0698 34.5449 82.7469 35.5771 83.0408 36.742L80.0674 37.7403C79.9426 37.124 79.598 36.5742 79.0978 36.1932C78.5976 35.8121 77.976 35.626 77.3486 35.6695Z" fill="#04003B"/>
<path d="M97.1717 49.9999H93.9274V44.037C93.2938 45.053 92.1539 45.5592 90.5079 45.5556C89.703 45.5772 88.903 45.4247 88.1625 45.1085C87.4221 44.7923 86.7587 44.32 86.2176 43.7238C85.0698 42.4605 84.4602 40.7994 84.5185 39.0935C84.4642 37.4158 85.0487 35.78 86.1539 34.5165C86.6822 33.9155 87.3372 33.4389 88.0717 33.1213C88.8062 32.8036 89.6019 32.6527 90.4017 32.6793C91.2224 32.6443 92.0378 32.8275 92.7646 33.2103C93.2796 33.4797 93.7069 33.8904 93.9965 34.3943V32.9766H97.1824L97.1717 49.9999ZM88.7238 36.5714C88.1207 37.2686 87.8122 38.1731 87.8636 39.0935C87.8149 40.0201 88.1227 40.9302 88.7238 41.637C89.0031 41.9372 89.3413 42.1767 89.7173 42.3404C90.0931 42.5042 90.4988 42.5886 90.9088 42.5886C91.3188 42.5886 91.7245 42.5042 92.1005 42.3404C92.4764 42.1767 92.8145 41.9372 93.0938 41.637C93.6948 40.9302 94.0026 40.0201 93.954 39.0935C94.0054 38.1731 93.6969 37.2686 93.0938 36.5714C92.8097 36.2793 92.47 36.0472 92.0948 35.8887C91.7195 35.7302 91.3162 35.6484 90.9088 35.6484C90.5014 35.6484 90.0981 35.7302 89.7228 35.8887C89.3476 36.0472 89.0079 36.2793 88.7238 36.5714Z" fill="#04003B"/>
<path d="M108.65 45.2543C108.574 44.8178 108.54 44.3751 108.549 43.9322C108.227 44.4863 107.733 44.9207 107.142 45.1694C106.516 45.4414 105.839 45.5807 105.156 45.5783C104.52 45.6105 103.884 45.5033 103.293 45.2639C102.702 45.0244 102.171 44.6588 101.737 44.1923C100.894 43.2421 100.447 42.0051 100.489 40.7356V32.978H103.808V40.04C103.779 40.6843 103.982 41.3176 104.381 41.8242C104.588 42.0598 104.847 42.2447 105.137 42.3644C105.427 42.4841 105.741 42.5355 106.054 42.5145C106.368 42.5298 106.681 42.4786 106.974 42.3643C107.267 42.2499 107.532 42.0749 107.753 41.8507C108.183 41.3691 108.406 40.7378 108.374 40.0931V32.978H111.693V43.0348C111.691 43.7765 111.733 44.5177 111.82 45.2543H108.65Z" fill="#04003B"/>
<path d="M118.557 45.2543H115.238V32.978H118.557V45.2543Z" fill="#04003B"/>
<path d="M129.58 32.9281V36.2734C129.252 36.2054 128.917 36.1716 128.582 36.1724C127.741 36.1348 126.918 36.4262 126.288 36.9849C125.705 37.5265 125.412 38.4115 125.412 39.6398V45.2575H122.094V32.9812H125.317V34.8025C125.911 33.5175 127.08 32.8804 128.811 32.8804C128.991 32.8804 129.251 32.8963 129.58 32.9281Z" fill="#04003B"/>
<path d="M140.046 40.9141L142.818 41.7371C142.491 42.8602 141.802 43.8438 140.859 44.5353C139.801 45.2902 138.525 45.6748 137.227 45.6292C136.396 45.6462 135.571 45.497 134.801 45.1906C134.029 44.8843 133.326 44.4269 132.735 43.8451C131.556 42.5598 130.9 40.8823 130.891 39.1392C130.882 37.3961 131.522 35.7121 132.687 34.4148C133.233 33.838 133.891 33.3794 134.622 33.068C135.353 32.7565 136.14 32.5987 136.934 32.6041C138.831 32.6041 140.316 33.1705 141.39 34.3033C142.462 35.4361 142.993 36.9919 142.982 38.9707C142.982 39.1034 142.982 39.2521 142.982 39.4167C142.982 39.5812 142.982 39.7194 142.982 39.815V39.9902H134.141C134.151 40.371 134.241 40.7453 134.405 41.0892C134.568 41.4331 134.803 41.7388 135.091 41.9867C135.675 42.5105 136.433 42.7967 137.215 42.7885C137.831 42.8494 138.448 42.6963 138.965 42.3549C139.48 42.0133 139.862 41.5045 140.046 40.9141ZM134.237 37.7282H139.721C139.704 37.0826 139.442 36.4677 138.989 36.0078C138.719 35.7626 138.402 35.5746 138.056 35.455C137.712 35.3355 137.346 35.2868 136.982 35.3122C136.624 35.2988 136.266 35.3583 135.931 35.4871C135.596 35.6157 135.291 35.8109 135.033 36.061C134.568 36.4923 134.283 37.0844 134.237 37.7176V37.7282Z" fill="#04003B"/>
</svg>
