<svg width="40" height="50" viewBox="0 0 40 50" fill="none" xmlns="http://www.w3.org/2000/svg">
<rect y="5" width="40" height="40" rx="6" fill="#E5E9EC"/>
<path d="M11.4099 37V12.2727H21.3105C23.1296 12.2727 24.6469 12.5424 25.8623 13.0817C27.0777 13.621 27.9913 14.3696 28.6031 15.3274C29.2148 16.2772 29.5207 17.3719 29.5207 18.6115C29.5207 19.5774 29.3275 20.4266 28.9411 21.1591C28.5548 21.8835 28.0235 22.4792 27.3474 22.946C26.6793 23.4048 25.9146 23.7308 25.0534 23.924V24.1655C25.9951 24.2057 26.8765 24.4714 27.6975 24.9624C28.5266 25.4534 29.1987 26.1416 29.7139 27.027C30.229 27.9044 30.4866 28.9508 30.4866 30.1662C30.4866 31.4782 30.1606 32.6494 29.5086 33.6797C28.8647 34.7019 27.9108 35.5109 26.6471 36.1065C25.3834 36.7022 23.8258 37 21.9745 37H11.4099ZM16.6379 32.7259H20.8999C22.3569 32.7259 23.4194 32.4482 24.0874 31.8928C24.7555 31.3293 25.0896 30.5807 25.0896 29.647C25.0896 28.9628 24.9246 28.3591 24.5945 27.8359C24.2645 27.3127 23.7937 26.9022 23.1819 26.6044C22.5782 26.3066 21.8578 26.1577 21.0207 26.1577H16.6379V32.7259ZM16.6379 22.62H20.5136C21.23 22.62 21.8659 22.4953 22.4213 22.2457C22.9847 21.9882 23.4274 21.6259 23.7494 21.1591C24.0794 20.6922 24.2444 20.1328 24.2444 19.4808C24.2444 18.5874 23.9265 17.867 23.2906 17.3196C22.6627 16.7723 21.7693 16.4986 20.6102 16.4986H16.6379V22.62Z" fill="#899198"/>
</svg>
